<svg width="240" height="240" viewBox="0 0 240 240" fill="none" xmlns="http://www.w3.org/2000/svg">
<path d="M119.294 238.588C185.178 238.588 238.588 185.178 238.588 119.294C238.588 53.4097 185.178 0 119.294 0C53.4097 0 0 53.4097 0 119.294C0 185.178 53.4097 238.588 119.294 238.588Z" fill="#BDD3FA"/>
<path d="M72.7752 42.4539H189.293V197.548H72.7752C66.2483 197.548 60.957 192.257 60.957 185.73V54.272C60.957 47.7451 66.2483 42.4539 72.7752 42.4539Z" fill="#FDFDFF" stroke="#4F4F4F" stroke-width="1.5"/>
<path d="M64.4734 184.545H189.293V197.821H70.7167C65.3265 197.821 60.957 193.452 60.957 188.062C60.957 186.12 62.5312 184.545 64.4734 184.545Z" fill="#FDFDFF" stroke="#4F4F4F" stroke-width="1.5"/>
<path d="M121.111 102.609H129.138V94.5815H121.111V102.609ZM121.111 134.719H129.138V110.636H121.111V134.719ZM125.085 154.787C102.929 154.787 84.9875 136.806 84.9875 114.65C84.9875 92.4943 102.929 74.5128 125.085 74.5128C147.281 74.5128 165.262 92.4943 165.262 114.65C165.262 136.806 147.281 154.787 125.085 154.787ZM125.125 82.5401C107.384 82.5401 93.0148 96.9095 93.0148 114.65C93.0148 132.391 107.384 146.76 125.125 146.76C142.865 146.76 157.234 132.391 157.234 114.65C157.234 96.9095 142.865 82.5401 125.125 82.5401Z" fill="#4684F0"/>
<path d="M68.9329 71.8881H50.2024" stroke="#4F4F4F" stroke-width="1.5"/>
<path d="M68.9329 101.322H50.2024" stroke="#4F4F4F" stroke-width="1.5"/>
<path d="M68.9329 130.756H50.2024" stroke="#4F4F4F" stroke-width="1.5"/>
<path d="M68.9329 160.19H50.2024" stroke="#4F4F4F" stroke-width="1.5"/>
</svg>
