<svg xmlns="http://www.w3.org/2000/svg" viewBox="0 0 184 160"><defs><style>.cls-1{fill:#4f4f4f;}</style></defs><g id="Layer_2" data-name="Layer 2"><g id="Layer_2-2" data-name="Layer 2"><path class="cls-1" d="M168.05,24H124V16a16,16,0,0,0-16-16H76A16,16,0,0,0,60,16v8H16A16,16,0,0,0,0,40V144.05A16,16,0,0,0,16,160h152.1A16,16,0,0,0,184,144.05V40A16,16,0,0,0,168.05,24ZM68,16a8,8,0,0,1,8-8h32.1a8,8,0,0,1,8,8v8H68ZM176,144.05a8,8,0,0,1-7.95,7.95H16A8,8,0,0,1,8,144.05V69.47L79.71,92.3v12h24.67v-12L176,69.47ZM87.71,96.29V87.62h8.67v8.67ZM176,61.07l-71.62,22.8V79.62H79.71V83.9L8,61.08V40a8,8,0,0,1,8-8h152.1A8,8,0,0,1,176,40Z"/></g></g></svg>