<svg width="70" height="65" viewBox="0 0 70 65" fill="none" xmlns="http://www.w3.org/2000/svg">
<circle cx="35" cy="33" r="32" fill="#334B74"/>
<ellipse cx="36.5" cy="55.5" rx="15.5" ry="2.5" fill="#454545"/>
<rect x="22" width="25" height="45" rx="12.5" fill="#C4C4C4"/>
<rect x="32" y="42" width="5" height="10" fill="#C4C4C4"/>
<path d="M39 13.5C39 12.6716 39.6716 12 40.5 12H47V15H40.5C39.6716 15 39 14.3284 39 13.5Z" fill="#334B74"/>
<path d="M39 22.5C39 21.6716 39.6716 21 40.5 21H47V24H40.5C39.6716 24 39 23.3284 39 22.5Z" fill="#334B74"/>
<path d="M39 31.5C39 30.6716 39.6716 30 40.5 30H47V33H40.5C39.6716 33 39 32.3284 39 31.5Z" fill="#334B74"/>
<path d="M22 12H28.5C29.3284 12 30 12.6716 30 13.5C30 14.3284 29.3284 15 28.5 15H22V12Z" fill="#334B74"/>
<path d="M22 21H28.5C29.3284 21 30 21.6716 30 22.5C30 23.3284 29.3284 24 28.5 24H22V21Z" fill="#334B74"/>
<path d="M22 30H28.5C29.3284 30 30 30.6716 30 31.5C30 32.3284 29.3284 33 28.5 33H22V30Z" fill="#334B74"/>
<path d="M22 56C22 53.2386 24.2386 51 27 51H42C44.7614 51 47 53.2386 47 56H22Z" fill="#C4C4C4"/>
<line x1="54.5" y1="11.5" x2="54.5" y2="31.5" stroke="#212427" stroke-linecap="round"/>
<line x1="1.5" y1="11.5" x2="1.5" y2="31.5" stroke="#212427" stroke-linecap="round"/>
<line x1="61.5" y1="6.5" x2="61.5" y2="36.5" stroke="#212427" stroke-linecap="round"/>
<line x1="8.5" y1="6.5" x2="8.5" y2="36.5" stroke="#212427" stroke-linecap="round"/>
<line x1="69.5" y1="11.5" x2="69.5" y2="31.5" stroke="#212427" stroke-linecap="round"/>
<line x1="16.5" y1="11.5" x2="16.5" y2="31.5" stroke="#212427" stroke-linecap="round"/>
<line x1="53.5" y1="11.5" x2="53.5" y2="31.5" stroke="#4684F0" stroke-linecap="round"/>
<line x1="0.5" y1="11.5" x2="0.499999" y2="31.5" stroke="#4684F0" stroke-linecap="round"/>
<line x1="60.5" y1="6.5" x2="60.5" y2="36.5" stroke="#4684F0" stroke-linecap="round"/>
<line x1="7.5" y1="6.5" x2="7.5" y2="36.5" stroke="#4684F0" stroke-linecap="round"/>
<line x1="68.5" y1="11.5" x2="68.5" y2="31.5" stroke="#4684F0" stroke-linecap="round"/>
<line x1="15.5" y1="11.5" x2="15.5" y2="31.5" stroke="#4684F0" stroke-linecap="round"/>
</svg>
