<svg width="381" height="242" viewBox="0 0 381 242" fill="none" xmlns="http://www.w3.org/2000/svg">
<rect x="0.5" y="0.5" width="380" height="241" rx="12.5" fill="#212427" stroke="#4D4D4D"/>
<path d="M159.115 134.66V138H157.99V129.469H161.137C162.07 129.469 162.801 129.707 163.328 130.184C163.859 130.66 164.125 131.291 164.125 132.076C164.125 132.904 163.865 133.543 163.346 133.992C162.83 134.438 162.09 134.66 161.125 134.66H159.115ZM159.115 133.74H161.137C161.738 133.74 162.199 133.6 162.52 133.318C162.84 133.033 163 132.623 163 132.088C163 131.58 162.84 131.174 162.52 130.869C162.199 130.564 161.76 130.406 161.201 130.395H159.115V133.74ZM168.605 132.633C168.441 132.605 168.263 132.592 168.072 132.592C167.361 132.592 166.879 132.895 166.625 133.5V138H165.541V131.66H166.595L166.613 132.393C166.968 131.826 167.472 131.543 168.125 131.543C168.336 131.543 168.496 131.57 168.605 131.625V132.633ZM169.353 134.771C169.353 134.15 169.474 133.592 169.716 133.096C169.962 132.6 170.302 132.217 170.736 131.947C171.173 131.678 171.671 131.543 172.23 131.543C173.093 131.543 173.79 131.842 174.321 132.439C174.857 133.037 175.124 133.832 175.124 134.824V134.9C175.124 135.518 175.005 136.072 174.767 136.564C174.532 137.053 174.195 137.434 173.753 137.707C173.316 137.98 172.812 138.117 172.241 138.117C171.382 138.117 170.685 137.818 170.15 137.221C169.618 136.623 169.353 135.832 169.353 134.848V134.771ZM170.443 134.9C170.443 135.604 170.605 136.168 170.929 136.594C171.257 137.02 171.695 137.232 172.241 137.232C172.792 137.232 173.23 137.018 173.554 136.588C173.878 136.154 174.04 135.549 174.04 134.771C174.04 134.076 173.874 133.514 173.542 133.084C173.214 132.65 172.777 132.434 172.23 132.434C171.695 132.434 171.263 132.646 170.935 133.072C170.607 133.498 170.443 134.107 170.443 134.9ZM176.37 134.777C176.37 133.805 176.6 133.023 177.061 132.434C177.522 131.84 178.126 131.543 178.872 131.543C179.614 131.543 180.202 131.797 180.636 132.305V129H181.72V138H180.723L180.671 137.32C180.237 137.852 179.634 138.117 178.86 138.117C178.126 138.117 177.526 137.816 177.061 137.215C176.6 136.613 176.37 135.828 176.37 134.859V134.777ZM177.454 134.9C177.454 135.619 177.602 136.182 177.899 136.588C178.196 136.994 178.606 137.197 179.13 137.197C179.817 137.197 180.319 136.889 180.636 136.271V133.359C180.311 132.762 179.813 132.463 179.141 132.463C178.61 132.463 178.196 132.668 177.899 133.078C177.602 133.488 177.454 134.096 177.454 134.9ZM187.471 137.373C187.049 137.869 186.43 138.117 185.614 138.117C184.938 138.117 184.422 137.922 184.067 137.531C183.715 137.137 183.538 136.555 183.534 135.785V131.66H184.618V135.756C184.618 136.717 185.008 137.197 185.789 137.197C186.618 137.197 187.168 136.889 187.442 136.271V131.66H188.526V138H187.495L187.471 137.373ZM192.871 137.232C193.258 137.232 193.596 137.115 193.885 136.881C194.174 136.646 194.334 136.354 194.365 136.002H195.391C195.371 136.365 195.246 136.711 195.016 137.039C194.785 137.367 194.477 137.629 194.09 137.824C193.707 138.02 193.301 138.117 192.871 138.117C192.008 138.117 191.32 137.83 190.809 137.256C190.301 136.678 190.047 135.889 190.047 134.889V134.707C190.047 134.09 190.16 133.541 190.387 133.061C190.613 132.58 190.938 132.207 191.359 131.941C191.785 131.676 192.287 131.543 192.865 131.543C193.576 131.543 194.166 131.756 194.635 132.182C195.107 132.607 195.359 133.16 195.391 133.84H194.365C194.334 133.43 194.178 133.094 193.896 132.832C193.619 132.566 193.275 132.434 192.865 132.434C192.314 132.434 191.887 132.633 191.582 133.031C191.281 133.426 191.131 133.998 191.131 134.748V134.953C191.131 135.684 191.281 136.246 191.582 136.641C191.883 137.035 192.312 137.232 192.871 137.232ZM199.39 138.117C198.531 138.117 197.832 137.836 197.293 137.273C196.754 136.707 196.484 135.951 196.484 135.006V134.807C196.484 134.178 196.603 133.617 196.841 133.125C197.084 132.629 197.42 132.242 197.849 131.965C198.283 131.684 198.752 131.543 199.255 131.543C200.08 131.543 200.72 131.814 201.177 132.357C201.634 132.9 201.863 133.678 201.863 134.689V135.141H197.568C197.584 135.766 197.765 136.271 198.113 136.658C198.464 137.041 198.91 137.232 199.449 137.232C199.832 137.232 200.156 137.154 200.421 136.998C200.687 136.842 200.92 136.635 201.119 136.377L201.781 136.893C201.25 137.709 200.453 138.117 199.39 138.117ZM199.255 132.434C198.818 132.434 198.451 132.594 198.154 132.914C197.857 133.23 197.673 133.676 197.603 134.25H200.779V134.168C200.748 133.617 200.599 133.191 200.334 132.891C200.068 132.586 199.709 132.434 199.255 132.434ZM206.337 132.633C206.173 132.605 205.995 132.592 205.804 132.592C205.093 132.592 204.611 132.895 204.357 133.5V138H203.273V131.66H204.327L204.345 132.393C204.7 131.826 205.204 131.543 205.857 131.543C206.068 131.543 206.228 131.57 206.337 131.625V132.633ZM217.342 138H216.211L211.916 131.426V138H210.786V129.469H211.916L216.223 136.072V129.469H217.342V138ZM223.234 138C223.172 137.875 223.121 137.652 223.082 137.332C222.578 137.855 221.977 138.117 221.277 138.117C220.652 138.117 220.139 137.941 219.736 137.59C219.338 137.234 219.139 136.785 219.139 136.242C219.139 135.582 219.389 135.07 219.889 134.707C220.393 134.34 221.1 134.156 222.01 134.156H223.064V133.658C223.064 133.279 222.951 132.979 222.725 132.756C222.498 132.529 222.164 132.416 221.723 132.416C221.336 132.416 221.012 132.514 220.75 132.709C220.488 132.904 220.357 133.141 220.357 133.418H219.268C219.268 133.102 219.379 132.797 219.602 132.504C219.828 132.207 220.133 131.973 220.516 131.801C220.902 131.629 221.326 131.543 221.787 131.543C222.518 131.543 223.09 131.727 223.504 132.094C223.918 132.457 224.133 132.959 224.148 133.6V136.518C224.148 137.1 224.223 137.562 224.371 137.906V138H223.234ZM221.436 137.174C221.775 137.174 222.098 137.086 222.402 136.91C222.707 136.734 222.928 136.506 223.064 136.225V134.924H222.215C220.887 134.924 220.223 135.312 220.223 136.09C220.223 136.43 220.336 136.695 220.562 136.887C220.789 137.078 221.08 137.174 221.436 137.174ZM227.017 131.66L227.046 132.363C227.511 131.816 228.138 131.543 228.927 131.543C229.814 131.543 230.418 131.883 230.738 132.562C230.949 132.258 231.222 132.012 231.558 131.824C231.898 131.637 232.298 131.543 232.759 131.543C234.15 131.543 234.857 132.279 234.88 133.752V138H233.796V133.816C233.796 133.363 233.693 133.025 233.486 132.803C233.279 132.576 232.931 132.463 232.443 132.463C232.041 132.463 231.707 132.584 231.441 132.826C231.175 133.064 231.021 133.387 230.978 133.793V138H229.888V133.846C229.888 132.924 229.437 132.463 228.535 132.463C227.824 132.463 227.338 132.766 227.076 133.371V138H225.992V131.66H227.017ZM239.302 138.117C238.443 138.117 237.743 137.836 237.204 137.273C236.665 136.707 236.396 135.951 236.396 135.006V134.807C236.396 134.178 236.515 133.617 236.753 133.125C236.995 132.629 237.331 132.242 237.761 131.965C238.195 131.684 238.663 131.543 239.167 131.543C239.991 131.543 240.632 131.814 241.089 132.357C241.546 132.9 241.775 133.678 241.775 134.689V135.141H237.48C237.495 135.766 237.677 136.271 238.025 136.658C238.376 137.041 238.821 137.232 239.361 137.232C239.743 137.232 240.068 137.154 240.333 136.998C240.599 136.842 240.831 136.635 241.03 136.377L241.693 136.893C241.161 137.709 240.364 138.117 239.302 138.117ZM239.167 132.434C238.73 132.434 238.363 132.594 238.066 132.914C237.769 133.23 237.585 133.676 237.515 134.25H240.691V134.168C240.659 133.617 240.511 133.191 240.245 132.891C239.98 132.586 239.62 132.434 239.167 132.434Z" fill="#CACACA"/>
<path d="M180.119 154.549H178.115V158H176.984V149.469H179.809C180.77 149.469 181.508 149.688 182.023 150.125C182.543 150.562 182.803 151.199 182.803 152.035C182.803 152.566 182.658 153.029 182.369 153.424C182.084 153.818 181.686 154.113 181.174 154.309L183.178 157.93V158H181.971L180.119 154.549ZM178.115 153.629H179.844C180.402 153.629 180.846 153.484 181.174 153.195C181.506 152.906 181.672 152.52 181.672 152.035C181.672 151.508 181.514 151.104 181.197 150.822C180.885 150.541 180.432 150.398 179.838 150.395H178.115V153.629ZM188.279 158C188.216 157.875 188.166 157.652 188.127 157.332C187.623 157.855 187.021 158.117 186.322 158.117C185.697 158.117 185.183 157.941 184.781 157.59C184.382 157.234 184.183 156.785 184.183 156.242C184.183 155.582 184.433 155.07 184.933 154.707C185.437 154.34 186.144 154.156 187.054 154.156H188.109V153.658C188.109 153.279 187.996 152.979 187.769 152.756C187.543 152.529 187.209 152.416 186.767 152.416C186.38 152.416 186.056 152.514 185.795 152.709C185.533 152.904 185.402 153.141 185.402 153.418H184.312C184.312 153.102 184.423 152.797 184.646 152.504C184.873 152.207 185.177 151.973 185.56 151.801C185.947 151.629 186.371 151.543 186.832 151.543C187.562 151.543 188.134 151.727 188.548 152.094C188.963 152.457 189.177 152.959 189.193 153.6V156.518C189.193 157.1 189.267 157.562 189.416 157.906V158H188.279ZM186.48 157.174C186.82 157.174 187.142 157.086 187.447 156.91C187.752 156.734 187.972 156.506 188.109 156.225V154.924H187.259C185.931 154.924 185.267 155.312 185.267 156.09C185.267 156.43 185.38 156.695 185.607 156.887C185.834 157.078 186.125 157.174 186.48 157.174ZM192.22 158H191.136V151.66H192.22V158ZM191.048 149.979C191.048 149.803 191.101 149.654 191.206 149.533C191.316 149.412 191.476 149.352 191.687 149.352C191.898 149.352 192.058 149.412 192.167 149.533C192.277 149.654 192.331 149.803 192.331 149.979C192.331 150.154 192.277 150.301 192.167 150.418C192.058 150.535 191.898 150.594 191.687 150.594C191.476 150.594 191.316 150.535 191.206 150.418C191.101 150.301 191.048 150.154 191.048 149.979ZM195.136 151.66L195.171 152.457C195.655 151.848 196.288 151.543 197.069 151.543C198.409 151.543 199.085 152.299 199.096 153.811V158H198.013V153.805C198.009 153.348 197.903 153.01 197.696 152.791C197.493 152.572 197.175 152.463 196.741 152.463C196.389 152.463 196.081 152.557 195.815 152.744C195.55 152.932 195.343 153.178 195.194 153.482V158H194.11V151.66H195.136ZM208.883 154.232H205.303V158H204.178V149.469H209.463V150.395H205.303V153.312H208.883V154.232ZM214.576 157.373C214.154 157.869 213.535 158.117 212.718 158.117C212.043 158.117 211.527 157.922 211.171 157.531C210.82 157.137 210.642 156.555 210.638 155.785V151.66H211.722V155.756C211.722 156.717 212.113 157.197 212.894 157.197C213.722 157.197 214.273 156.889 214.546 156.271V151.66H215.63V158H214.599L214.576 157.373ZM218.458 151.66L218.493 152.457C218.978 151.848 219.611 151.543 220.392 151.543C221.732 151.543 222.407 152.299 222.419 153.811V158H221.335V153.805C221.331 153.348 221.226 153.01 221.019 152.791C220.816 152.572 220.497 152.463 220.064 152.463C219.712 152.463 219.404 152.557 219.138 152.744C218.872 152.932 218.665 153.178 218.517 153.482V158H217.433V151.66H218.458ZM223.94 154.777C223.94 153.805 224.171 153.023 224.632 152.434C225.093 151.84 225.696 151.543 226.442 151.543C227.184 151.543 227.772 151.797 228.206 152.305V149H229.29V158H228.294L228.241 157.32C227.807 157.852 227.204 158.117 226.43 158.117C225.696 158.117 225.096 157.816 224.632 157.215C224.171 156.613 223.94 155.828 223.94 154.859V154.777ZM225.024 154.9C225.024 155.619 225.173 156.182 225.47 156.588C225.766 156.994 226.177 157.197 226.7 157.197C227.388 157.197 227.889 156.889 228.206 156.271V153.359C227.882 152.762 227.384 152.463 226.712 152.463C226.18 152.463 225.766 152.668 225.47 153.078C225.173 153.488 225.024 154.096 225.024 154.9Z" fill="#CACACA"/>
<path d="M290.119 134.549H288.115V138H286.984V129.469H289.809C290.77 129.469 291.508 129.688 292.023 130.125C292.543 130.562 292.803 131.199 292.803 132.035C292.803 132.566 292.658 133.029 292.369 133.424C292.084 133.818 291.686 134.113 291.174 134.309L293.178 137.93V138H291.971L290.119 134.549ZM288.115 133.629H289.844C290.402 133.629 290.846 133.484 291.174 133.195C291.506 132.906 291.672 132.52 291.672 132.035C291.672 131.508 291.514 131.104 291.197 130.822C290.885 130.541 290.432 130.398 289.838 130.395H288.115V133.629ZM295.543 138H294.459V131.66H295.543V138ZM294.371 129.979C294.371 129.803 294.423 129.654 294.529 129.533C294.638 129.412 294.798 129.352 295.009 129.352C295.22 129.352 295.38 129.412 295.49 129.533C295.599 129.654 295.654 129.803 295.654 129.979C295.654 130.154 295.599 130.301 295.49 130.418C295.38 130.535 295.22 130.594 295.009 130.594C294.798 130.594 294.638 130.535 294.529 130.418C294.423 130.301 294.371 130.154 294.371 129.979ZM301.124 136.318C301.124 136.025 301.013 135.799 300.79 135.639C300.571 135.475 300.187 135.334 299.636 135.217C299.089 135.1 298.654 134.959 298.329 134.795C298.009 134.631 297.771 134.436 297.614 134.209C297.462 133.982 297.386 133.713 297.386 133.4C297.386 132.881 297.605 132.441 298.042 132.082C298.484 131.723 299.046 131.543 299.73 131.543C300.448 131.543 301.03 131.729 301.476 132.1C301.925 132.471 302.15 132.945 302.15 133.523H301.06C301.06 133.227 300.933 132.971 300.679 132.756C300.429 132.541 300.113 132.434 299.73 132.434C299.335 132.434 299.027 132.52 298.804 132.691C298.581 132.863 298.47 133.088 298.47 133.365C298.47 133.627 298.573 133.824 298.78 133.957C298.988 134.09 299.361 134.217 299.9 134.338C300.443 134.459 300.882 134.604 301.218 134.771C301.554 134.939 301.802 135.143 301.962 135.381C302.126 135.615 302.208 135.902 302.208 136.242C302.208 136.809 301.982 137.264 301.529 137.607C301.075 137.947 300.488 138.117 299.765 138.117C299.257 138.117 298.808 138.027 298.417 137.848C298.027 137.668 297.72 137.418 297.497 137.098C297.279 136.773 297.169 136.424 297.169 136.049H298.253C298.273 136.412 298.417 136.701 298.687 136.916C298.96 137.127 299.32 137.232 299.765 137.232C300.175 137.232 300.503 137.15 300.749 136.986C300.999 136.818 301.124 136.596 301.124 136.318ZM305.54 135.064L304.86 135.773V138H303.776V129H304.86V134.443L305.44 133.746L307.415 131.66H308.733L306.266 134.309L309.02 138H307.749L305.54 135.064ZM314.424 134.66V138H313.299V129.469H316.445C317.379 129.469 318.109 129.707 318.637 130.184C319.168 130.66 319.434 131.291 319.434 132.076C319.434 132.904 319.174 133.543 318.654 133.992C318.139 134.438 317.398 134.66 316.434 134.66H314.424ZM314.424 133.74H316.445C317.047 133.74 317.508 133.6 317.828 133.318C318.148 133.033 318.309 132.623 318.309 132.088C318.309 131.58 318.148 131.174 317.828 130.869C317.508 130.564 317.068 130.406 316.51 130.395H314.424V133.74ZM323.914 132.633C323.75 132.605 323.572 132.592 323.38 132.592C322.67 132.592 322.187 132.895 321.933 133.5V138H320.849V131.66H321.904L321.921 132.393C322.277 131.826 322.781 131.543 323.433 131.543C323.644 131.543 323.804 131.57 323.914 131.625V132.633ZM324.661 134.771C324.661 134.15 324.782 133.592 325.025 133.096C325.271 132.6 325.611 132.217 326.044 131.947C326.482 131.678 326.98 131.543 327.538 131.543C328.402 131.543 329.099 131.842 329.63 132.439C330.165 133.037 330.433 133.832 330.433 134.824V134.9C330.433 135.518 330.314 136.072 330.075 136.564C329.841 137.053 329.503 137.434 329.062 137.707C328.624 137.98 328.12 138.117 327.55 138.117C326.691 138.117 325.993 137.818 325.458 137.221C324.927 136.623 324.661 135.832 324.661 134.848V134.771ZM325.751 134.9C325.751 135.604 325.913 136.168 326.237 136.594C326.566 137.02 327.003 137.232 327.55 137.232C328.101 137.232 328.538 137.018 328.862 136.588C329.187 136.154 329.349 135.549 329.349 134.771C329.349 134.076 329.183 133.514 328.851 133.084C328.523 132.65 328.085 132.434 327.538 132.434C327.003 132.434 326.571 132.646 326.243 133.072C325.915 133.498 325.751 134.107 325.751 134.9ZM332.305 138V132.498H331.304V131.66H332.305V131.121C332.305 130.414 332.507 129.863 332.909 129.469C333.315 129.074 333.888 128.877 334.626 128.877C335.063 128.877 335.616 128.996 336.284 129.234L336.102 130.148C335.614 129.953 335.149 129.855 334.708 129.855C334.243 129.855 333.907 129.961 333.7 130.172C333.497 130.379 333.395 130.691 333.395 131.109V131.66H334.69V132.498H333.395V138H332.305ZM336.823 138H335.733V131.66H336.823V138ZM339.914 138H338.83V129H339.914V138ZM344.436 138.117C343.576 138.117 342.877 137.836 342.338 137.273C341.799 136.707 341.529 135.951 341.529 135.006V134.807C341.529 134.178 341.648 133.617 341.887 133.125C342.129 132.629 342.465 132.242 342.895 131.965C343.328 131.684 343.797 131.543 344.301 131.543C345.125 131.543 345.766 131.814 346.223 132.357C346.68 132.9 346.908 133.678 346.908 134.689V135.141H342.613C342.629 135.766 342.811 136.271 343.158 136.658C343.51 137.041 343.955 137.232 344.494 137.232C344.877 137.232 345.201 137.154 345.467 136.998C345.732 136.842 345.965 136.635 346.164 136.377L346.826 136.893C346.295 137.709 345.498 138.117 344.436 138.117ZM344.301 132.434C343.863 132.434 343.496 132.594 343.199 132.914C342.902 133.23 342.719 133.676 342.648 134.25H345.824V134.168C345.793 133.617 345.645 133.191 345.379 132.891C345.113 132.586 344.754 132.434 344.301 132.434Z" fill="#CACACA"/>
<path d="M305.121 157.08H309.164V158H303.99V149.469H305.121V157.08ZM310.14 154.771C310.14 154.15 310.261 153.592 310.504 153.096C310.75 152.6 311.089 152.217 311.523 151.947C311.961 151.678 312.459 151.543 313.017 151.543C313.88 151.543 314.578 151.842 315.109 152.439C315.644 153.037 315.912 153.832 315.912 154.824V154.9C315.912 155.518 315.793 156.072 315.554 156.564C315.32 157.053 314.982 157.434 314.541 157.707C314.103 157.98 313.599 158.117 313.029 158.117C312.17 158.117 311.472 157.818 310.937 157.221C310.406 156.623 310.14 155.832 310.14 154.848V154.771ZM311.23 154.9C311.23 155.604 311.392 156.168 311.716 156.594C312.045 157.02 312.482 157.232 313.029 157.232C313.58 157.232 314.017 157.018 314.341 156.588C314.666 156.154 314.828 155.549 314.828 154.771C314.828 154.076 314.662 153.514 314.33 153.084C314.002 152.65 313.564 152.434 313.017 152.434C312.482 152.434 312.05 152.646 311.722 153.072C311.394 153.498 311.23 154.107 311.23 154.9ZM323.034 156.506L324.253 151.66H325.337L323.491 158H322.613L321.071 153.195L319.571 158H318.693L316.853 151.66H317.931L319.179 156.406L320.655 151.66H321.529L323.034 156.506Z" fill="#CACACA"/>
<path d="M26.4434 129.469L29.2324 136.43L32.0215 129.469H33.4805V138H32.3555V134.678L32.4609 131.092L29.6602 138H28.7988L26.0039 131.109L26.1152 134.678V138H24.9902V129.469H26.4434ZM36.6246 138H35.5406V131.66H36.6246V138ZM35.4527 129.979C35.4527 129.803 35.5055 129.654 35.6109 129.533C35.7203 129.412 35.8805 129.352 36.0914 129.352C36.3023 129.352 36.4625 129.412 36.5719 129.533C36.6812 129.654 36.7359 129.803 36.7359 129.979C36.7359 130.154 36.6812 130.301 36.5719 130.418C36.4625 130.535 36.3023 130.594 36.0914 130.594C35.8805 130.594 35.7203 130.535 35.6109 130.418C35.5055 130.301 35.4527 130.154 35.4527 129.979ZM39.5402 131.66L39.5754 132.457C40.0598 131.848 40.6926 131.543 41.4738 131.543C42.8137 131.543 43.4895 132.299 43.5012 133.811V138H42.4172V133.805C42.4133 133.348 42.3078 133.01 42.1008 132.791C41.8977 132.572 41.5793 132.463 41.1457 132.463C40.7941 132.463 40.4855 132.557 40.2199 132.744C39.9543 132.932 39.7473 133.178 39.5988 133.482V138H38.5148V131.66H39.5402ZM45.3094 137.432C45.3094 137.244 45.3641 137.088 45.4734 136.963C45.5867 136.838 45.7547 136.775 45.9773 136.775C46.2 136.775 46.368 136.838 46.4813 136.963C46.5984 137.088 46.657 137.244 46.657 137.432C46.657 137.611 46.5984 137.762 46.4813 137.883C46.368 138.004 46.2 138.064 45.9773 138.064C45.7547 138.064 45.5867 138.004 45.4734 137.883C45.3641 137.762 45.3094 137.611 45.3094 137.432ZM53.1035 138H51.9785V129.469H53.1035V138ZM56.1715 131.66L56.2066 132.457C56.691 131.848 57.3238 131.543 58.1051 131.543C59.4449 131.543 60.1207 132.299 60.1324 133.811V138H59.0484V133.805C59.0445 133.348 58.9391 133.01 58.732 132.791C58.5289 132.572 58.2105 132.463 57.777 132.463C57.4254 132.463 57.1168 132.557 56.8512 132.744C56.5855 132.932 56.3785 133.178 56.2301 133.482V138H55.1461V131.66H56.1715ZM64.009 136.529L65.5793 131.66H66.6867L64.4133 138H63.5871L61.2902 131.66H62.3977L64.009 136.529ZM70.4285 138.117C69.5691 138.117 68.8699 137.836 68.3309 137.273C67.7918 136.707 67.5223 135.951 67.5223 135.006V134.807C67.5223 134.178 67.6414 133.617 67.8797 133.125C68.1219 132.629 68.4578 132.242 68.8875 131.965C69.3211 131.684 69.7898 131.543 70.2938 131.543C71.118 131.543 71.7586 131.814 72.2156 132.357C72.6727 132.9 72.9012 133.678 72.9012 134.689V135.141H68.6063C68.6219 135.766 68.8035 136.271 69.1512 136.658C69.5027 137.041 69.948 137.232 70.4871 137.232C70.8699 137.232 71.1941 137.154 71.4598 136.998C71.7254 136.842 71.9578 136.635 72.157 136.377L72.8191 136.893C72.2879 137.709 71.491 138.117 70.4285 138.117ZM70.2938 132.434C69.8563 132.434 69.4891 132.594 69.1922 132.914C68.8953 133.23 68.7117 133.676 68.6414 134.25H71.8172V134.168C71.7859 133.617 71.6375 133.191 71.3719 132.891C71.1063 132.586 70.7469 132.434 70.2938 132.434ZM78.0023 136.318C78.0023 136.025 77.891 135.799 77.6684 135.639C77.4496 135.475 77.0648 135.334 76.5141 135.217C75.9672 135.1 75.5316 134.959 75.2074 134.795C74.8871 134.631 74.6488 134.436 74.4926 134.209C74.3402 133.982 74.2641 133.713 74.2641 133.4C74.2641 132.881 74.4828 132.441 74.9203 132.082C75.3617 131.723 75.9242 131.543 76.6078 131.543C77.3266 131.543 77.9086 131.729 78.3539 132.1C78.8031 132.471 79.0277 132.945 79.0277 133.523H77.9379C77.9379 133.227 77.8109 132.971 77.557 132.756C77.307 132.541 76.9906 132.434 76.6078 132.434C76.2133 132.434 75.9047 132.52 75.682 132.691C75.4594 132.863 75.348 133.088 75.348 133.365C75.348 133.627 75.4516 133.824 75.6586 133.957C75.8656 134.09 76.2387 134.217 76.7777 134.338C77.3207 134.459 77.7602 134.604 78.0961 134.771C78.432 134.939 78.6801 135.143 78.8402 135.381C79.0043 135.615 79.0863 135.902 79.0863 136.242C79.0863 136.809 78.8598 137.264 78.4066 137.607C77.9535 137.947 77.3656 138.117 76.643 138.117C76.1352 138.117 75.6859 138.027 75.2953 137.848C74.9047 137.668 74.598 137.418 74.3754 137.098C74.1566 136.773 74.0473 136.424 74.0473 136.049H75.1312C75.1508 136.412 75.2953 136.701 75.5648 136.916C75.8383 137.127 76.1977 137.232 76.643 137.232C77.0531 137.232 77.3812 137.15 77.6273 136.986C77.8773 136.818 78.0023 136.596 78.0023 136.318ZM82.1191 130.125V131.66H83.3027V132.498H82.1191V136.43C82.1191 136.684 82.1719 136.875 82.2773 137.004C82.3828 137.129 82.5625 137.191 82.8164 137.191C82.9414 137.191 83.1133 137.168 83.332 137.121V138C83.0469 138.078 82.7695 138.117 82.5 138.117C82.0156 138.117 81.6504 137.971 81.4043 137.678C81.1582 137.385 81.0352 136.969 81.0352 136.43V132.498H79.8809V131.66H81.0352V130.125H82.1191ZM85.7438 131.66L85.773 132.363C86.2379 131.816 86.8648 131.543 87.6539 131.543C88.5406 131.543 89.1441 131.883 89.4645 132.562C89.6754 132.258 89.9488 132.012 90.2848 131.824C90.6246 131.637 91.025 131.543 91.4859 131.543C92.8766 131.543 93.5836 132.279 93.607 133.752V138H92.523V133.816C92.523 133.363 92.4195 133.025 92.2125 132.803C92.0055 132.576 91.6578 132.463 91.1695 132.463C90.7672 132.463 90.4332 132.584 90.1676 132.826C89.902 133.064 89.7477 133.387 89.7047 133.793V138H88.6148V133.846C88.6148 132.924 88.1637 132.463 87.2613 132.463C86.5504 132.463 86.0641 132.766 85.8023 133.371V138H84.7184V131.66H85.7438ZM98.0285 138.117C97.1691 138.117 96.4699 137.836 95.9309 137.273C95.3918 136.707 95.1223 135.951 95.1223 135.006V134.807C95.1223 134.178 95.2414 133.617 95.4797 133.125C95.7219 132.629 96.0578 132.242 96.4875 131.965C96.9211 131.684 97.3898 131.543 97.8938 131.543C98.718 131.543 99.3586 131.814 99.8156 132.357C100.273 132.9 100.501 133.678 100.501 134.689V135.141H96.2063C96.2219 135.766 96.4035 136.271 96.7512 136.658C97.1027 137.041 97.548 137.232 98.0871 137.232C98.4699 137.232 98.7941 137.154 99.0598 136.998C99.3254 136.842 99.5578 136.635 99.757 136.377L100.419 136.893C99.8879 137.709 99.091 138.117 98.0285 138.117ZM97.8938 132.434C97.4563 132.434 97.0891 132.594 96.7922 132.914C96.4953 133.23 96.3117 133.676 96.2414 134.25H99.4172V134.168C99.3859 133.617 99.2375 133.191 98.9719 132.891C98.7063 132.586 98.3469 132.434 97.8938 132.434ZM102.936 131.66L102.971 132.457C103.456 131.848 104.089 131.543 104.87 131.543C106.21 131.543 106.886 132.299 106.897 133.811V138H105.813V133.805C105.809 133.348 105.704 133.01 105.497 132.791C105.294 132.572 104.975 132.463 104.542 132.463C104.19 132.463 103.882 132.557 103.616 132.744C103.35 132.932 103.143 133.178 102.995 133.482V138H101.911V131.66H102.936ZM110.153 130.125V131.66H111.336V132.498H110.153V136.43C110.153 136.684 110.205 136.875 110.311 137.004C110.416 137.129 110.596 137.191 110.85 137.191C110.975 137.191 111.147 137.168 111.366 137.121V138C111.08 138.078 110.803 138.117 110.534 138.117C110.049 138.117 109.684 137.971 109.438 137.678C109.192 137.385 109.069 136.969 109.069 136.43V132.498H107.914V131.66H109.069V130.125H110.153Z" fill="#CACACA"/>
<path d="M50.207 153.723L50.6406 149.469H55.0117V150.471H51.5605L51.3027 152.797C51.7207 152.551 52.1953 152.428 52.7266 152.428C53.5039 152.428 54.1211 152.686 54.5781 153.201C55.0352 153.713 55.2637 154.406 55.2637 155.281C55.2637 156.16 55.0254 156.854 54.5488 157.361C54.0762 157.865 53.4141 158.117 52.5625 158.117C51.8086 158.117 51.1934 157.908 50.7168 157.49C50.2402 157.072 49.9688 156.494 49.9023 155.756H50.9277C50.9941 156.244 51.168 156.613 51.4492 156.863C51.7305 157.109 52.1016 157.232 52.5625 157.232C53.0664 157.232 53.4609 157.061 53.7461 156.717C54.0352 156.373 54.1797 155.898 54.1797 155.293C54.1797 154.723 54.0234 154.266 53.7109 153.922C53.4023 153.574 52.9902 153.4 52.4746 153.4C52.002 153.4 51.6309 153.504 51.3613 153.711L51.0742 153.945L50.207 153.723ZM61.9469 154.361C61.9469 155.631 61.7301 156.574 61.2965 157.191C60.8629 157.809 60.1852 158.117 59.2633 158.117C58.3531 158.117 57.6793 157.816 57.2418 157.215C56.8043 156.609 56.5777 155.707 56.5621 154.508V153.061C56.5621 151.807 56.7789 150.875 57.2125 150.266C57.6461 149.656 58.3258 149.352 59.2516 149.352C60.1695 149.352 60.8453 149.646 61.2789 150.236C61.7125 150.822 61.9352 151.729 61.9469 152.955V154.361ZM60.8629 152.879C60.8629 151.961 60.734 151.293 60.4762 150.875C60.2184 150.453 59.8102 150.242 59.2516 150.242C58.6969 150.242 58.2926 150.451 58.0387 150.869C57.7848 151.287 57.6539 151.93 57.6461 152.797V154.531C57.6461 155.453 57.7789 156.135 58.0445 156.576C58.3141 157.014 58.7203 157.232 59.2633 157.232C59.7984 157.232 60.1949 157.025 60.4527 156.611C60.7145 156.197 60.8512 155.545 60.8629 154.654V152.879ZM68.8352 154.361C68.8352 155.631 68.6184 156.574 68.1848 157.191C67.7512 157.809 67.0734 158.117 66.1516 158.117C65.2414 158.117 64.5676 157.816 64.1301 157.215C63.6926 156.609 63.466 155.707 63.4504 154.508V153.061C63.4504 151.807 63.6672 150.875 64.1008 150.266C64.5344 149.656 65.2141 149.352 66.1398 149.352C67.0578 149.352 67.7336 149.646 68.1672 150.236C68.6008 150.822 68.8234 151.729 68.8352 152.955V154.361ZM67.7512 152.879C67.7512 151.961 67.6223 151.293 67.3645 150.875C67.1066 150.453 66.6984 150.242 66.1398 150.242C65.5852 150.242 65.1809 150.451 64.927 150.869C64.673 151.287 64.5422 151.93 64.5344 152.797V154.531C64.5344 155.453 64.6672 156.135 64.9328 156.576C65.2023 157.014 65.6086 157.232 66.1516 157.232C66.6867 157.232 67.0832 157.025 67.341 156.611C67.6027 156.197 67.7395 155.545 67.7512 154.654V152.879ZM75.7234 154.361C75.7234 155.631 75.5066 156.574 75.073 157.191C74.6395 157.809 73.9617 158.117 73.0398 158.117C72.1297 158.117 71.4559 157.816 71.0184 157.215C70.5809 156.609 70.3543 155.707 70.3387 154.508V153.061C70.3387 151.807 70.5555 150.875 70.9891 150.266C71.4227 149.656 72.1023 149.352 73.0281 149.352C73.9461 149.352 74.6219 149.646 75.0555 150.236C75.4891 150.822 75.7117 151.729 75.7234 152.955V154.361ZM74.6395 152.879C74.6395 151.961 74.5105 151.293 74.2527 150.875C73.9949 150.453 73.5867 150.242 73.0281 150.242C72.4734 150.242 72.0691 150.451 71.8152 150.869C71.5613 151.287 71.4305 151.93 71.4227 152.797V154.531C71.4227 155.453 71.5555 156.135 71.8211 156.576C72.0906 157.014 72.4969 157.232 73.0398 157.232C73.575 157.232 73.9715 157.025 74.2293 156.611C74.491 156.197 74.6277 155.545 74.6395 154.654V152.879ZM82.6117 154.361C82.6117 155.631 82.3949 156.574 81.9613 157.191C81.5277 157.809 80.85 158.117 79.9281 158.117C79.018 158.117 78.3441 157.816 77.9066 157.215C77.4691 156.609 77.2426 155.707 77.227 154.508V153.061C77.227 151.807 77.4438 150.875 77.8773 150.266C78.3109 149.656 78.9906 149.352 79.9164 149.352C80.8344 149.352 81.5102 149.646 81.9438 150.236C82.3773 150.822 82.6 151.729 82.6117 152.955V154.361ZM81.5277 152.879C81.5277 151.961 81.3988 151.293 81.141 150.875C80.8832 150.453 80.475 150.242 79.9164 150.242C79.3617 150.242 78.9574 150.451 78.7035 150.869C78.4496 151.287 78.3188 151.93 78.3109 152.797V154.531C78.3109 155.453 78.4438 156.135 78.7094 156.576C78.9789 157.014 79.3852 157.232 79.9281 157.232C80.4633 157.232 80.8598 157.025 81.1176 156.611C81.3793 156.197 81.516 155.545 81.5277 154.654V152.879ZM89.5 154.361C89.5 155.631 89.2832 156.574 88.8496 157.191C88.416 157.809 87.7383 158.117 86.8164 158.117C85.9062 158.117 85.2324 157.816 84.7949 157.215C84.3574 156.609 84.1309 155.707 84.1152 154.508V153.061C84.1152 151.807 84.332 150.875 84.7656 150.266C85.1992 149.656 85.8789 149.352 86.8047 149.352C87.7227 149.352 88.3984 149.646 88.832 150.236C89.2656 150.822 89.4883 151.729 89.5 152.955V154.361ZM88.416 152.879C88.416 151.961 88.2871 151.293 88.0293 150.875C87.7715 150.453 87.3633 150.242 86.8047 150.242C86.25 150.242 85.8457 150.451 85.5918 150.869C85.3379 151.287 85.207 151.93 85.1992 152.797V154.531C85.1992 155.453 85.332 156.135 85.5977 156.576C85.8672 157.014 86.2734 157.232 86.8164 157.232C87.3516 157.232 87.748 157.025 88.0059 156.611C88.2676 156.197 88.4043 155.545 88.416 154.654V152.879Z" fill="#CACACA"/>
<rect x="24" y="66" width="333" height="43" rx="6" fill="url(#paint0_linear)"/>
<path d="M39.8125 77.0566H36.1152V80.0801H40.4102V81H34.9902V72.4688H40.3516V73.3945H36.1152V76.1367H39.8125V77.0566ZM41.4098 77.7773C41.4098 76.7812 41.6383 75.9941 42.0953 75.416C42.5523 74.834 43.1656 74.543 43.9352 74.543C44.6852 74.543 45.277 74.7949 45.7105 75.2988L45.7574 74.6602H46.7535V83.4375H45.6695V80.4141C45.232 80.8828 44.65 81.1172 43.9234 81.1172C43.1578 81.1172 42.5465 80.8203 42.0895 80.2266C41.6363 79.6289 41.4098 78.8379 41.4098 77.8535V77.7773ZM42.4938 77.9004C42.4938 78.627 42.6461 79.1973 42.9508 79.6113C43.2594 80.0254 43.6734 80.2324 44.193 80.2324C44.8375 80.2324 45.3297 79.9473 45.6695 79.377V76.2715C45.3258 75.7129 44.8375 75.4336 44.2047 75.4336C43.6813 75.4336 43.2652 75.6426 42.9566 76.0605C42.648 76.4746 42.4938 77.0879 42.4938 77.9004ZM52.5578 80.373C52.1359 80.8691 51.5168 81.1172 50.7004 81.1172C50.0246 81.1172 49.509 80.9219 49.1535 80.5312C48.802 80.1367 48.6242 79.5547 48.6203 78.7852V74.6602H49.7043V78.7559C49.7043 79.7168 50.0949 80.1973 50.8762 80.1973C51.7043 80.1973 52.2551 79.8887 52.5285 79.2715V74.6602H53.6125V81H52.5813L52.5578 80.373ZM56.5926 81H55.5086V74.6602H56.5926V81ZM55.4207 72.9785C55.4207 72.8027 55.4734 72.6543 55.5789 72.5332C55.6883 72.4121 55.8484 72.3516 56.0594 72.3516C56.2703 72.3516 56.4305 72.4121 56.5398 72.5332C56.6492 72.6543 56.7039 72.8027 56.7039 72.9785C56.7039 73.1543 56.6492 73.3008 56.5398 73.418C56.4305 73.5352 56.2703 73.5938 56.0594 73.5938C55.8484 73.5938 55.6883 73.5352 55.5789 73.418C55.4734 73.3008 55.4207 73.1543 55.4207 72.9785ZM59.9535 73.125V74.6602H61.1371V75.498H59.9535V79.4297C59.9535 79.6836 60.0063 79.875 60.1117 80.0039C60.2172 80.1289 60.3969 80.1914 60.6508 80.1914C60.7758 80.1914 60.9477 80.168 61.1664 80.1211V81C60.8813 81.0781 60.6039 81.1172 60.3344 81.1172C59.85 81.1172 59.4848 80.9707 59.2387 80.6777C58.9926 80.3848 58.8695 79.9688 58.8695 79.4297V75.498H57.7152V74.6602H58.8695V73.125H59.9535ZM64.6328 79.4121L66.1094 74.6602H67.2695L64.7207 81.9785C64.3262 83.0332 63.6992 83.5605 62.8398 83.5605L62.6348 83.543L62.2305 83.4668V82.5879L62.5234 82.6113C62.8906 82.6113 63.1758 82.5371 63.3789 82.3887C63.5859 82.2402 63.7559 81.9688 63.8887 81.5742L64.1289 80.9297L61.8672 74.6602H63.0508L64.6328 79.4121Z" fill="#282C31"/>
<path d="M160.885 73.3945H158.143V81H157.023V73.3945H154.287V72.4688H160.885V73.3945ZM164.75 75.6328C164.586 75.6055 164.408 75.5918 164.216 75.5918C163.505 75.5918 163.023 75.8945 162.769 76.5V81H161.685V74.6602H162.74L162.757 75.3926C163.113 74.8262 163.617 74.543 164.269 74.543C164.48 74.543 164.64 74.5703 164.75 74.625V75.6328ZM168.415 81.1172C167.556 81.1172 166.857 80.8359 166.318 80.2734C165.779 79.707 165.509 78.9512 165.509 78.0059V77.8066C165.509 77.1777 165.628 76.6172 165.866 76.125C166.109 75.6289 166.445 75.2422 166.874 74.9648C167.308 74.6836 167.777 74.543 168.28 74.543C169.105 74.543 169.745 74.8145 170.202 75.3574C170.659 75.9004 170.888 76.6777 170.888 77.6895V78.1406H166.593C166.609 78.7656 166.79 79.2715 167.138 79.6582C167.489 80.041 167.935 80.2324 168.474 80.2324C168.857 80.2324 169.181 80.1543 169.446 79.998C169.712 79.8418 169.945 79.6348 170.144 79.377L170.806 79.8926C170.275 80.709 169.478 81.1172 168.415 81.1172ZM168.28 75.4336C167.843 75.4336 167.476 75.5938 167.179 75.9141C166.882 76.2305 166.698 76.6758 166.628 77.25H169.804V77.168C169.773 76.6172 169.624 76.1914 169.359 75.8906C169.093 75.5859 168.734 75.4336 168.28 75.4336ZM173.323 74.6602L173.358 75.457C173.843 74.8477 174.475 74.543 175.257 74.543C176.596 74.543 177.272 75.2988 177.284 76.8105V81H176.2V76.8047C176.196 76.3477 176.091 76.0098 175.884 75.791C175.68 75.5723 175.362 75.4629 174.929 75.4629C174.577 75.4629 174.268 75.5566 174.003 75.7441C173.737 75.9316 173.53 76.1777 173.382 76.4824V81H172.298V74.6602H173.323ZM178.805 77.7773C178.805 76.8047 179.036 76.0234 179.496 75.4336C179.957 74.8398 180.561 74.543 181.307 74.543C182.049 74.543 182.637 74.7969 183.071 75.3047V72H184.155V81H183.159L183.106 80.3203C182.672 80.8516 182.069 81.1172 181.295 81.1172C180.561 81.1172 179.961 80.8164 179.496 80.2148C179.036 79.6133 178.805 78.8281 178.805 77.8594V77.7773ZM179.889 77.9004C179.889 78.6191 180.038 79.1816 180.334 79.5879C180.631 79.9941 181.041 80.1973 181.565 80.1973C182.252 80.1973 182.754 79.8887 183.071 79.2715V76.3594C182.746 75.7617 182.248 75.4629 181.577 75.4629C181.045 75.4629 180.631 75.668 180.334 76.0781C180.038 76.4883 179.889 77.0957 179.889 77.9004ZM159.695 94.2324H156.115V98H154.99V89.4688H160.275V90.3945H156.115V93.3125H159.695V94.2324ZM161.187 94.7715C161.187 94.1504 161.308 93.5918 161.55 93.0957C161.796 92.5996 162.136 92.2168 162.57 91.9473C163.007 91.6777 163.505 91.543 164.064 91.543C164.927 91.543 165.625 91.8418 166.156 92.4395C166.691 93.0371 166.959 93.832 166.959 94.8242V94.9004C166.959 95.5176 166.839 96.0723 166.601 96.5645C166.367 97.0527 166.029 97.4336 165.588 97.707C165.15 97.9805 164.646 98.1172 164.076 98.1172C163.216 98.1172 162.519 97.8184 161.984 97.2207C161.453 96.623 161.187 95.832 161.187 94.8477V94.7715ZM162.277 94.9004C162.277 95.6035 162.439 96.168 162.763 96.5938C163.091 97.0195 163.529 97.2324 164.076 97.2324C164.627 97.2324 165.064 97.0176 165.388 96.5879C165.713 96.1543 165.875 95.5488 165.875 94.7715C165.875 94.0762 165.709 93.5137 165.377 93.084C165.048 92.6504 164.611 92.4336 164.064 92.4336C163.529 92.4336 163.097 92.6465 162.769 93.0723C162.441 93.498 162.277 94.1074 162.277 94.9004ZM169.646 98H168.562V89H169.646V98ZM172.714 98H171.63V89H172.714V98ZM174.317 94.7715C174.317 94.1504 174.438 93.5918 174.68 93.0957C174.926 92.5996 175.266 92.2168 175.7 91.9473C176.137 91.6777 176.635 91.543 177.194 91.543C178.057 91.543 178.754 91.8418 179.286 92.4395C179.821 93.0371 180.088 93.832 180.088 94.8242V94.9004C180.088 95.5176 179.969 96.0723 179.731 96.5645C179.496 97.0527 179.159 97.4336 178.717 97.707C178.28 97.9805 177.776 98.1172 177.205 98.1172C176.346 98.1172 175.649 97.8184 175.114 97.2207C174.582 96.623 174.317 95.832 174.317 94.8477V94.7715ZM175.407 94.9004C175.407 95.6035 175.569 96.168 175.893 96.5938C176.221 97.0195 176.659 97.2324 177.205 97.2324C177.756 97.2324 178.194 97.0176 178.518 96.5879C178.842 96.1543 179.004 95.5488 179.004 94.7715C179.004 94.0762 178.838 93.5137 178.506 93.084C178.178 92.6504 177.741 92.4336 177.194 92.4336C176.659 92.4336 176.227 92.6465 175.899 93.0723C175.571 93.498 175.407 94.1074 175.407 94.9004ZM187.211 96.5059L188.43 91.6602H189.514L187.668 98H186.789L185.248 93.1953L183.748 98H182.869L181.029 91.6602H182.107L183.355 96.4062L184.832 91.6602H185.705L187.211 96.5059ZM191.949 98H190.865V91.6602H191.949V98ZM190.777 89.9785C190.777 89.8027 190.83 89.6543 190.935 89.5332C191.045 89.4121 191.205 89.3516 191.416 89.3516C191.627 89.3516 191.787 89.4121 191.896 89.5332C192.005 89.6543 192.06 89.8027 192.06 89.9785C192.06 90.1543 192.005 90.3008 191.896 90.418C191.787 90.5352 191.627 90.5938 191.416 90.5938C191.205 90.5938 191.045 90.5352 190.935 90.418C190.83 90.3008 190.777 90.1543 190.777 89.9785ZM194.864 91.6602L194.9 92.457C195.384 91.8477 196.017 91.543 196.798 91.543C198.138 91.543 198.814 92.2988 198.825 93.8105V98H197.741V93.8047C197.737 93.3477 197.632 93.0098 197.425 92.791C197.222 92.5723 196.904 92.4629 196.47 92.4629C196.118 92.4629 195.81 92.5566 195.544 92.7441C195.279 92.9316 195.071 93.1777 194.923 93.4824V98H193.839V91.6602H194.864ZM200.352 94.7773C200.352 93.7891 200.581 93.0039 201.038 92.4219C201.495 91.8359 202.1 91.543 202.854 91.543C203.628 91.543 204.231 91.8164 204.665 92.3633L204.718 91.6602H205.708V97.8477C205.708 98.668 205.464 99.3145 204.975 99.7871C204.491 100.26 203.839 100.496 203.018 100.496C202.561 100.496 202.114 100.398 201.677 100.203C201.239 100.008 200.905 99.7402 200.675 99.4004L201.237 98.75C201.702 99.3242 202.27 99.6113 202.942 99.6113C203.47 99.6113 203.88 99.4629 204.173 99.166C204.47 98.8691 204.618 98.4512 204.618 97.9121V97.3672C204.184 97.8672 203.593 98.1172 202.843 98.1172C202.1 98.1172 201.499 97.8184 201.038 97.2207C200.581 96.623 200.352 95.8086 200.352 94.7773ZM201.442 94.9004C201.442 95.6152 201.589 96.1777 201.882 96.5879C202.175 96.9941 202.585 97.1973 203.112 97.1973C203.796 97.1973 204.298 96.8867 204.618 96.2656V93.3711C204.286 92.7656 203.788 92.4629 203.124 92.4629C202.596 92.4629 202.184 92.668 201.888 93.0781C201.591 93.4883 201.442 94.0957 201.442 94.9004Z" fill="#282C31"/>
<path d="M300.197 81H299.072V72.4688H300.197V81ZM303.265 74.6602L303.3 75.457C303.785 74.8477 304.418 74.543 305.199 74.543C306.539 74.543 307.214 75.2988 307.226 76.8105V81H306.142V76.8047C306.138 76.3477 306.033 76.0098 305.826 75.791C305.623 75.5723 305.304 75.4629 304.871 75.4629C304.519 75.4629 304.211 75.5566 303.945 75.7441C303.679 75.9316 303.472 76.1777 303.324 76.4824V81H302.24V74.6602H303.265ZM308.747 77.7773C308.747 76.8047 308.978 76.0234 309.439 75.4336C309.9 74.8398 310.503 74.543 311.249 74.543C311.991 74.543 312.579 74.7969 313.013 75.3047V72H314.097V81H313.101L313.048 80.3203C312.614 80.8516 312.011 81.1172 311.238 81.1172C310.503 81.1172 309.904 80.8164 309.439 80.2148C308.978 79.6133 308.747 78.8281 308.747 77.8594V77.7773ZM309.831 77.9004C309.831 78.6191 309.98 79.1816 310.277 79.5879C310.573 79.9941 310.984 80.1973 311.507 80.1973C312.195 80.1973 312.696 79.8887 313.013 79.2715V76.3594C312.689 75.7617 312.191 75.4629 311.519 75.4629C310.988 75.4629 310.573 75.668 310.277 76.0781C309.98 76.4883 309.831 77.0957 309.831 77.9004ZM318.565 81.1172C317.706 81.1172 317.007 80.8359 316.468 80.2734C315.929 79.707 315.659 78.9512 315.659 78.0059V77.8066C315.659 77.1777 315.778 76.6172 316.016 76.125C316.259 75.6289 316.595 75.2422 317.024 74.9648C317.458 74.6836 317.927 74.543 318.43 74.543C319.255 74.543 319.895 74.8145 320.352 75.3574C320.809 75.9004 321.038 76.6777 321.038 77.6895V78.1406H316.743C316.759 78.7656 316.94 79.2715 317.288 79.6582C317.639 80.041 318.085 80.2324 318.624 80.2324C319.007 80.2324 319.331 80.1543 319.596 79.998C319.862 79.8418 320.095 79.6348 320.294 79.377L320.956 79.8926C320.425 80.709 319.628 81.1172 318.565 81.1172ZM318.43 75.4336C317.993 75.4336 317.626 75.5938 317.329 75.9141C317.032 76.2305 316.848 76.6758 316.778 77.25H319.954V77.168C319.923 76.6172 319.774 76.1914 319.509 75.8906C319.243 75.5859 318.884 75.4336 318.43 75.4336ZM324.575 76.9746L325.981 74.6602H327.246L325.172 77.7949L327.311 81H326.057L324.592 78.627L323.127 81H321.868L324.006 77.7949L321.932 74.6602H323.186L324.575 76.9746ZM303.695 94.2324H300.115V98H298.99V89.4688H304.275V90.3945H300.115V93.3125H303.695V94.2324ZM309.388 97.373C308.966 97.8691 308.347 98.1172 307.531 98.1172C306.855 98.1172 306.339 97.9219 305.984 97.5312C305.632 97.1367 305.455 96.5547 305.451 95.7852V91.6602H306.535V95.7559C306.535 96.7168 306.925 97.1973 307.707 97.1973C308.535 97.1973 309.086 96.8887 309.359 96.2715V91.6602H310.443V98H309.412L309.388 97.373ZM313.716 90.125V91.6602H314.9V92.498H313.716V96.4297C313.716 96.6836 313.769 96.875 313.874 97.0039C313.98 97.1289 314.159 97.1914 314.413 97.1914C314.538 97.1914 314.71 97.168 314.929 97.1211V98C314.644 98.0781 314.366 98.1172 314.097 98.1172C313.613 98.1172 313.247 97.9707 313.001 97.6777C312.755 97.3848 312.632 96.9688 312.632 96.4297V92.498H311.478V91.6602H312.632V90.125H313.716ZM320.235 97.373C319.813 97.8691 319.194 98.1172 318.378 98.1172C317.702 98.1172 317.186 97.9219 316.831 97.5312C316.479 97.1367 316.302 96.5547 316.298 95.7852V91.6602H317.382V95.7559C317.382 96.7168 317.772 97.1973 318.554 97.1973C319.382 97.1973 319.932 96.8887 320.206 96.2715V91.6602H321.29V98H320.259L320.235 97.373ZM326.157 92.6328C325.993 92.6055 325.815 92.5918 325.623 92.5918C324.913 92.5918 324.43 92.8945 324.176 93.5V98H323.092V91.6602H324.147L324.164 92.3926C324.52 91.8262 325.024 91.543 325.676 91.543C325.887 91.543 326.047 91.5703 326.157 91.625V92.6328ZM329.822 98.1172C328.963 98.1172 328.264 97.8359 327.725 97.2734C327.186 96.707 326.916 95.9512 326.916 95.0059V94.8066C326.916 94.1777 327.035 93.6172 327.273 93.125C327.516 92.6289 327.852 92.2422 328.281 91.9648C328.715 91.6836 329.184 91.543 329.688 91.543C330.512 91.543 331.152 91.8145 331.609 92.3574C332.066 92.9004 332.295 93.6777 332.295 94.6895V95.1406H328C328.016 95.7656 328.197 96.2715 328.545 96.6582C328.896 97.041 329.342 97.2324 329.881 97.2324C330.264 97.2324 330.588 97.1543 330.854 96.998C331.119 96.8418 331.352 96.6348 331.551 96.377L332.213 96.8926C331.682 97.709 330.885 98.1172 329.822 98.1172ZM329.688 92.4336C329.25 92.4336 328.883 92.5938 328.586 92.9141C328.289 93.2305 328.105 93.6758 328.035 94.25H331.211V94.168C331.18 93.6172 331.031 93.1914 330.766 92.8906C330.5 92.5859 330.141 92.4336 329.688 92.4336ZM337.396 96.3184C337.396 96.0254 337.285 95.7988 337.062 95.6387C336.843 95.4746 336.459 95.334 335.908 95.2168C335.361 95.0996 334.925 94.959 334.601 94.7949C334.281 94.6309 334.043 94.4355 333.886 94.209C333.734 93.9824 333.658 93.7129 333.658 93.4004C333.658 92.8809 333.877 92.4414 334.314 92.082C334.755 91.7227 335.318 91.543 336.002 91.543C336.72 91.543 337.302 91.7285 337.748 92.0996C338.197 92.4707 338.421 92.9453 338.421 93.5234H337.332C337.332 93.2266 337.205 92.9707 336.951 92.7559C336.701 92.541 336.384 92.4336 336.002 92.4336C335.607 92.4336 335.298 92.5195 335.076 92.6914C334.853 92.8633 334.742 93.0879 334.742 93.3652C334.742 93.627 334.845 93.8242 335.052 93.957C335.259 94.0898 335.632 94.2168 336.171 94.3379C336.714 94.459 337.154 94.6035 337.49 94.7715C337.826 94.9395 338.074 95.1426 338.234 95.3809C338.398 95.6152 338.48 95.9023 338.48 96.2422C338.48 96.8086 338.254 97.2637 337.8 97.6074C337.347 97.9473 336.759 98.1172 336.037 98.1172C335.529 98.1172 335.08 98.0273 334.689 97.8477C334.298 97.668 333.992 97.418 333.769 97.0977C333.55 96.7734 333.441 96.4238 333.441 96.0488H334.525C334.545 96.4121 334.689 96.7012 334.959 96.916C335.232 97.127 335.591 97.2324 336.037 97.2324C336.447 97.2324 336.775 97.1504 337.021 96.9863C337.271 96.8184 337.396 96.5957 337.396 96.3184Z" fill="#282C31"/>
<path d="M28.6689 36.165H26.7412V40H25.0117V30.0469H28.5117C29.6602 30.0469 30.5465 30.3044 31.1709 30.8193C31.7952 31.3343 32.1074 32.0794 32.1074 33.0547C32.1074 33.7201 31.9456 34.2783 31.6221 34.7295C31.3031 35.1761 30.8564 35.5202 30.2822 35.7617L32.5176 39.9111V40H30.665L28.6689 36.165ZM26.7412 34.7773H28.5186C29.1019 34.7773 29.5576 34.6315 29.8857 34.3398C30.2139 34.0436 30.3779 33.6403 30.3779 33.1299C30.3779 32.5967 30.2253 32.1842 29.9199 31.8926C29.6191 31.6009 29.168 31.4505 28.5664 31.4414H26.7412V34.7773ZM38.1568 40C38.0839 39.8587 38.0201 39.6286 37.9654 39.3096C37.4368 39.861 36.7896 40.1367 36.024 40.1367C35.2812 40.1367 34.6751 39.9248 34.2057 39.501C33.7363 39.0771 33.5016 38.5531 33.5016 37.9287C33.5016 37.1403 33.7932 36.5365 34.3766 36.1172C34.9645 35.6934 35.803 35.4814 36.8922 35.4814H37.9107V34.9961C37.9107 34.6133 37.8036 34.3079 37.5895 34.0801C37.3753 33.8477 37.0494 33.7314 36.6119 33.7314C36.2337 33.7314 35.9238 33.8271 35.6822 34.0186C35.4407 34.2054 35.3199 34.4447 35.3199 34.7363H33.6588C33.6588 34.3307 33.7932 33.9525 34.0621 33.6016C34.331 33.2461 34.6956 32.9681 35.1559 32.7676C35.6207 32.5671 36.138 32.4668 36.7076 32.4668C37.5735 32.4668 38.2639 32.6855 38.7789 33.123C39.2939 33.556 39.5582 34.1667 39.5719 34.9551V38.291C39.5719 38.9564 39.6653 39.4873 39.8521 39.8838V40H38.1568ZM36.3316 38.8037C36.6598 38.8037 36.9674 38.724 37.2545 38.5645C37.5462 38.4049 37.7649 38.1908 37.9107 37.9219V36.5273H37.0152C36.4 36.5273 35.9374 36.6344 35.6275 36.8486C35.3176 37.0628 35.1627 37.3659 35.1627 37.7578C35.1627 38.0768 35.2675 38.332 35.4771 38.5234C35.6913 38.7103 35.9762 38.8037 36.3316 38.8037ZM43.2287 40H41.5676V32.6035H43.2287V40ZM41.465 30.6826C41.465 30.4274 41.5448 30.2155 41.7043 30.0469C41.8684 29.8783 42.1008 29.7939 42.4016 29.7939C42.7023 29.7939 42.9348 29.8783 43.0988 30.0469C43.2629 30.2155 43.3449 30.4274 43.3449 30.6826C43.3449 30.9333 43.2629 31.1429 43.0988 31.3115C42.9348 31.4756 42.7023 31.5576 42.4016 31.5576C42.1008 31.5576 41.8684 31.4756 41.7043 31.3115C41.5448 31.1429 41.465 30.9333 41.465 30.6826ZM46.7352 32.6035L46.783 33.458C47.3299 32.7972 48.0477 32.4668 48.9363 32.4668C50.4767 32.4668 51.2605 33.3486 51.2879 35.1123V40H49.6268V35.208C49.6268 34.7386 49.5242 34.3923 49.3191 34.1689C49.1186 33.9411 48.7882 33.8271 48.3279 33.8271C47.658 33.8271 47.159 34.1302 46.8309 34.7363V40H45.1697V32.6035H46.7352ZM52.8256 36.2471C52.8256 35.1077 53.0899 34.194 53.6186 33.5059C54.1472 32.8132 54.8559 32.4668 55.7445 32.4668C56.5284 32.4668 57.1618 32.7402 57.6449 33.2871V29.5H59.3061V40H57.8021L57.7201 39.2344C57.2234 39.8359 56.5603 40.1367 55.7309 40.1367C54.865 40.1367 54.1632 39.7881 53.6254 39.0908C53.0922 38.3936 52.8256 37.4456 52.8256 36.2471ZM54.4867 36.3906C54.4867 37.1426 54.6303 37.7305 54.9174 38.1543C55.209 38.5736 55.6215 38.7832 56.1547 38.7832C56.8337 38.7832 57.3305 38.4801 57.6449 37.874V34.7158C57.3396 34.1234 56.8474 33.8271 56.1684 33.8271C55.6306 33.8271 55.2159 34.0413 54.9242 34.4697C54.6326 34.8936 54.4867 35.5339 54.4867 36.3906ZM65.0615 34.1211C64.8428 34.0846 64.6172 34.0664 64.3848 34.0664C63.6237 34.0664 63.111 34.3581 62.8467 34.9414V40H61.1855V32.6035H62.7715L62.8125 33.4307C63.2135 32.7881 63.7695 32.4668 64.4805 32.4668C64.7174 32.4668 64.9134 32.4987 65.0684 32.5625L65.0615 34.1211ZM65.7037 36.2334C65.7037 35.5088 65.8473 34.8571 66.1344 34.2783C66.4215 33.695 66.8248 33.2484 67.3443 32.9385C67.8639 32.624 68.4609 32.4668 69.1354 32.4668C70.1334 32.4668 70.9423 32.7881 71.5621 33.4307C72.1865 34.0732 72.5237 34.9255 72.5738 35.9873L72.5807 36.377C72.5807 37.1061 72.4394 37.7578 72.1568 38.332C71.8788 38.9062 71.4778 39.3506 70.9537 39.665C70.4342 39.9795 69.8326 40.1367 69.149 40.1367C68.1054 40.1367 67.2691 39.7904 66.6402 39.0977C66.0159 38.4004 65.7037 37.473 65.7037 36.3154V36.2334ZM67.3648 36.377C67.3648 37.138 67.5221 37.735 67.8365 38.168C68.151 38.5964 68.5885 38.8105 69.149 38.8105C69.7096 38.8105 70.1448 38.5918 70.4547 38.1543C70.7691 37.7168 70.9264 37.0765 70.9264 36.2334C70.9264 35.486 70.7646 34.8936 70.441 34.4561C70.122 34.0186 69.6868 33.7998 69.1354 33.7998C68.593 33.7998 68.1624 34.0163 67.8434 34.4492C67.5244 34.8776 67.3648 35.5202 67.3648 36.377ZM80.6125 36.377C80.6125 37.5208 80.3527 38.4346 79.8332 39.1182C79.3137 39.7972 78.6164 40.1367 77.7414 40.1367C76.9302 40.1367 76.2808 39.8701 75.7932 39.3369V42.8438H74.132V32.6035H75.6633L75.7316 33.3555C76.2193 32.763 76.8824 32.4668 77.7209 32.4668C78.6232 32.4668 79.3296 32.804 79.84 33.4785C80.355 34.1484 80.6125 35.0804 80.6125 36.2744V36.377ZM78.9582 36.2334C78.9582 35.4951 78.8101 34.9095 78.5139 34.4766C78.2222 34.0436 77.8029 33.8271 77.2561 33.8271C76.577 33.8271 76.0894 34.1074 75.7932 34.668V37.9492C76.0939 38.5234 76.5861 38.8105 77.2697 38.8105C77.7984 38.8105 78.2108 38.5986 78.507 38.1748C78.8078 37.7464 78.9582 37.0993 78.9582 36.2334ZM89.0336 36.4385H85.4447V35.0986H89.0336V36.4385ZM97.858 37.833L100.387 30.0469H102.288L98.7057 40H97.0309L93.4625 30.0469H95.3561L97.858 37.833ZM102.779 36.2334C102.779 35.5088 102.923 34.8571 103.21 34.2783C103.497 33.695 103.901 33.2484 104.42 32.9385C104.94 32.624 105.537 32.4668 106.211 32.4668C107.209 32.4668 108.018 32.7881 108.638 33.4307C109.262 34.0732 109.599 34.9255 109.65 35.9873L109.656 36.377C109.656 37.1061 109.515 37.7578 109.233 38.332C108.955 38.9062 108.554 39.3506 108.029 39.665C107.51 39.9795 106.908 40.1367 106.225 40.1367C105.181 40.1367 104.345 39.7904 103.716 39.0977C103.092 38.4004 102.779 37.473 102.779 36.3154V36.2334ZM104.441 36.377C104.441 37.138 104.598 37.735 104.912 38.168C105.227 38.5964 105.664 38.8105 106.225 38.8105C106.785 38.8105 107.221 38.5918 107.53 38.1543C107.845 37.7168 108.002 37.0765 108.002 36.2334C108.002 35.486 107.84 34.8936 107.517 34.4561C107.198 34.0186 106.763 33.7998 106.211 33.7998C105.669 33.7998 105.238 34.0163 104.919 34.4492C104.6 34.8776 104.441 35.5202 104.441 36.377ZM112.978 40H111.317V29.5H112.978V40ZM119.363 40C119.29 39.8587 119.226 39.6286 119.171 39.3096C118.643 39.861 117.996 40.1367 117.23 40.1367C116.487 40.1367 115.881 39.9248 115.412 39.501C114.942 39.0771 114.707 38.5531 114.707 37.9287C114.707 37.1403 114.999 36.5365 115.582 36.1172C116.17 35.6934 117.009 35.4814 118.098 35.4814H119.117V34.9961C119.117 34.6133 119.01 34.3079 118.795 34.0801C118.581 33.8477 118.255 33.7314 117.818 33.7314C117.44 33.7314 117.13 33.8271 116.888 34.0186C116.647 34.2054 116.526 34.4447 116.526 34.7363H114.865C114.865 34.3307 114.999 33.9525 115.268 33.6016C115.537 33.2461 115.901 32.9681 116.362 32.7676C116.827 32.5671 117.344 32.4668 117.913 32.4668C118.779 32.4668 119.47 32.6855 119.985 33.123C120.5 33.556 120.764 34.1667 120.778 34.9551V38.291C120.778 38.9564 120.871 39.4873 121.058 39.8838V40H119.363ZM117.537 38.8037C117.866 38.8037 118.173 38.724 118.46 38.5645C118.752 38.4049 118.971 38.1908 119.117 37.9219V36.5273H118.221C117.606 36.5273 117.143 36.6344 116.833 36.8486C116.524 37.0628 116.369 37.3659 116.369 37.7578C116.369 38.0768 116.473 38.332 116.683 38.5234C116.897 38.7103 117.182 38.8037 117.537 38.8037ZM124.749 30.8057V32.6035H126.055V33.834H124.749V37.9629C124.749 38.2454 124.804 38.4505 124.913 38.5781C125.027 38.7012 125.228 38.7627 125.515 38.7627C125.706 38.7627 125.9 38.7399 126.096 38.6943V39.9795C125.717 40.0843 125.353 40.1367 125.002 40.1367C123.726 40.1367 123.088 39.4326 123.088 38.0244V33.834H121.871V32.6035H123.088V30.8057H124.749ZM129.247 40H127.586V32.6035H129.247V40ZM127.483 30.6826C127.483 30.4274 127.563 30.2155 127.722 30.0469C127.886 29.8783 128.119 29.7939 128.42 29.7939C128.72 29.7939 128.953 29.8783 129.117 30.0469C129.281 30.2155 129.363 30.4274 129.363 30.6826C129.363 30.9333 129.281 31.1429 129.117 31.3115C128.953 31.4756 128.72 31.5576 128.42 31.5576C128.119 31.5576 127.886 31.4756 127.722 31.3115C127.563 31.1429 127.483 30.9333 127.483 30.6826ZM132.979 40H131.318V29.5H132.979V40ZM136.711 40H135.05V32.6035H136.711V40ZM134.947 30.6826C134.947 30.4274 135.027 30.2155 135.186 30.0469C135.35 29.8783 135.583 29.7939 135.884 29.7939C136.184 29.7939 136.417 29.8783 136.581 30.0469C136.745 30.2155 136.827 30.4274 136.827 30.6826C136.827 30.9333 136.745 31.1429 136.581 31.3115C136.417 31.4756 136.184 31.5576 135.884 31.5576C135.583 31.5576 135.35 31.4756 135.186 31.3115C135.027 31.1429 134.947 30.9333 134.947 30.6826ZM140.757 30.8057V32.6035H142.063V33.834H140.757V37.9629C140.757 38.2454 140.812 38.4505 140.921 38.5781C141.035 38.7012 141.236 38.7627 141.523 38.7627C141.714 38.7627 141.908 38.7399 142.104 38.6943V39.9795C141.726 40.0843 141.361 40.1367 141.01 40.1367C139.734 40.1367 139.096 39.4326 139.096 38.0244V33.834H137.879V32.6035H139.096V30.8057H140.757ZM146.075 37.6211L147.579 32.6035H149.35L146.41 41.1211C145.959 42.3652 145.193 42.9873 144.113 42.9873C143.872 42.9873 143.605 42.9463 143.313 42.8643V41.5791L143.628 41.5996C144.047 41.5996 144.362 41.5221 144.571 41.3672C144.785 41.2168 144.954 40.9616 145.077 40.6016L145.316 39.9658L142.719 32.6035H144.51L146.075 37.6211ZM159.459 37.4365C159.459 36.999 159.304 36.6618 158.994 36.4248C158.689 36.1878 158.135 35.9486 157.333 35.707C156.531 35.4655 155.893 35.1966 155.419 34.9004C154.512 34.3307 154.059 33.5879 154.059 32.6719C154.059 31.8698 154.385 31.209 155.036 30.6895C155.693 30.1699 156.543 29.9102 157.586 29.9102C158.279 29.9102 158.896 30.0378 159.439 30.293C159.981 30.5482 160.407 30.9128 160.717 31.3867C161.027 31.8561 161.182 32.3779 161.182 32.9521H159.459C159.459 32.4326 159.295 32.027 158.967 31.7354C158.643 31.4391 158.179 31.291 157.572 31.291C157.007 31.291 156.568 31.4118 156.253 31.6533C155.943 31.8949 155.788 32.2321 155.788 32.665C155.788 33.0296 155.957 33.335 156.294 33.5811C156.631 33.8226 157.187 34.0596 157.962 34.292C158.737 34.5199 159.359 34.7819 159.828 35.0781C160.298 35.3698 160.642 35.707 160.861 36.0898C161.079 36.4681 161.189 36.9124 161.189 37.4229C161.189 38.2523 160.87 38.9131 160.232 39.4053C159.598 39.8929 158.737 40.1367 157.648 40.1367C156.928 40.1367 156.265 40.0046 155.658 39.7402C155.057 39.4714 154.587 39.1022 154.25 38.6328C153.918 38.1634 153.751 37.6165 153.751 36.9922H155.481C155.481 37.5573 155.668 37.9948 156.041 38.3047C156.415 38.6146 156.95 38.7695 157.648 38.7695C158.249 38.7695 158.7 38.6488 159.001 38.4072C159.307 38.1611 159.459 37.8376 159.459 37.4365ZM165.953 40.1367C164.9 40.1367 164.046 39.8063 163.389 39.1455C162.738 38.4801 162.412 37.596 162.412 36.4932V36.2881C162.412 35.5498 162.553 34.8913 162.836 34.3125C163.123 33.7292 163.524 33.2757 164.039 32.9521C164.554 32.6286 165.128 32.4668 165.762 32.4668C166.769 32.4668 167.546 32.7881 168.093 33.4307C168.644 34.0732 168.92 34.9824 168.92 36.1582V36.8281H164.087C164.137 37.4388 164.34 37.9219 164.695 38.2773C165.055 38.6328 165.506 38.8105 166.049 38.8105C166.81 38.8105 167.429 38.5029 167.908 37.8877L168.804 38.7422C168.507 39.1842 168.111 39.5283 167.614 39.7744C167.122 40.016 166.568 40.1367 165.953 40.1367ZM165.755 33.7998C165.299 33.7998 164.93 33.9593 164.647 34.2783C164.369 34.5973 164.192 35.0417 164.114 35.6113H167.279V35.4883C167.243 34.9323 167.095 34.513 166.835 34.2305C166.575 33.9434 166.215 33.7998 165.755 33.7998ZM174.238 34.1211C174.019 34.0846 173.793 34.0664 173.561 34.0664C172.8 34.0664 172.287 34.3581 172.023 34.9414V40H170.362V32.6035H171.948L171.989 33.4307C172.39 32.7881 172.946 32.4668 173.657 32.4668C173.894 32.4668 174.09 32.4987 174.245 32.5625L174.238 34.1211ZM177.204 40H175.543V32.6035H177.204V40ZM175.44 30.6826C175.44 30.4274 175.52 30.2155 175.68 30.0469C175.844 29.8783 176.076 29.7939 176.377 29.7939C176.678 29.7939 176.91 29.8783 177.074 30.0469C177.238 30.2155 177.32 30.4274 177.32 30.6826C177.32 30.9333 177.238 31.1429 177.074 31.3115C176.91 31.4756 176.678 31.5576 176.377 31.5576C176.076 31.5576 175.844 31.4756 175.68 31.3115C175.52 31.1429 175.44 30.9333 175.44 30.6826ZM182.426 40.1367C181.374 40.1367 180.519 39.8063 179.863 39.1455C179.211 38.4801 178.885 37.596 178.885 36.4932V36.2881C178.885 35.5498 179.027 34.8913 179.309 34.3125C179.596 33.7292 179.997 33.2757 180.512 32.9521C181.027 32.6286 181.601 32.4668 182.235 32.4668C183.242 32.4668 184.019 32.7881 184.566 33.4307C185.117 34.0732 185.393 34.9824 185.393 36.1582V36.8281H180.56C180.61 37.4388 180.813 37.9219 181.169 38.2773C181.529 38.6328 181.98 38.8105 182.522 38.8105C183.283 38.8105 183.903 38.5029 184.381 37.8877L185.277 38.7422C184.981 39.1842 184.584 39.5283 184.087 39.7744C183.595 40.016 183.042 40.1367 182.426 40.1367ZM182.228 33.7998C181.772 33.7998 181.403 33.9593 181.121 34.2783C180.843 34.5973 180.665 35.0417 180.587 35.6113H183.753V35.4883C183.716 34.9323 183.568 34.513 183.308 34.2305C183.048 33.9434 182.688 33.7998 182.228 33.7998ZM190.985 37.9902C190.985 37.694 190.862 37.4684 190.615 37.3135C190.374 37.1585 189.971 37.0218 189.405 36.9033C188.84 36.7848 188.369 36.6344 187.99 36.4521C187.161 36.0511 186.746 35.4701 186.746 34.709C186.746 34.071 187.015 33.5378 187.553 33.1094C188.091 32.681 188.774 32.4668 189.604 32.4668C190.488 32.4668 191.201 32.6855 191.743 33.123C192.29 33.5605 192.564 34.1279 192.564 34.8252H190.903C190.903 34.5062 190.784 34.2419 190.547 34.0322C190.31 33.818 189.996 33.7109 189.604 33.7109C189.239 33.7109 188.941 33.7952 188.708 33.9639C188.48 34.1325 188.366 34.3581 188.366 34.6406C188.366 34.8958 188.474 35.0941 188.688 35.2354C188.902 35.3766 189.335 35.5202 189.987 35.666C190.638 35.8073 191.149 35.9782 191.518 36.1787C191.891 36.3747 192.167 36.6117 192.345 36.8896C192.527 37.1676 192.618 37.5049 192.618 37.9014C192.618 38.5667 192.343 39.1068 191.791 39.5215C191.24 39.9316 190.517 40.1367 189.624 40.1367C189.018 40.1367 188.478 40.0273 188.004 39.8086C187.53 39.5898 187.161 39.2891 186.897 38.9062C186.632 38.5234 186.5 38.111 186.5 37.6689H188.113C188.136 38.0609 188.284 38.3639 188.558 38.5781C188.831 38.7878 189.194 38.8926 189.645 38.8926C190.082 38.8926 190.415 38.8105 190.643 38.6465C190.871 38.4779 190.985 38.2591 190.985 37.9902ZM201.08 36.4385H197.492V35.0986H201.08V36.4385ZM211.969 37.6826H208.114L207.307 40H205.509L209.269 30.0469H210.821L214.587 40H212.783L211.969 37.6826ZM208.599 36.2881H211.484L210.042 32.1592L208.599 36.2881Z" fill="#4684F0"/>
<path d="M350 27H340C338.9 27 338.01 27.9 338.01 29L338 45L345 42L352 45V29C352 27.9 351.1 27 350 27Z" fill="#CACACA"/>
<path d="M27.9258 189.424H30.3047V190.449H27.9258V193.145H26.8359V190.449H24.457V189.424H26.8359V186.934H27.9258V189.424ZM35.8219 190.25C35.5953 190.52 35.3238 190.736 35.0074 190.9C34.6949 191.064 34.3512 191.146 33.9762 191.146C33.484 191.146 33.0543 191.025 32.6871 190.783C32.3238 190.541 32.0426 190.201 31.8434 189.764C31.6441 189.322 31.5445 188.836 31.5445 188.305C31.5445 187.734 31.652 187.221 31.8668 186.764C32.0855 186.307 32.3941 185.957 32.7926 185.715C33.191 185.473 33.6559 185.352 34.1871 185.352C35.0309 185.352 35.6949 185.668 36.1793 186.301C36.6676 186.93 36.9117 187.789 36.9117 188.879V189.195C36.9117 190.855 36.5836 192.068 35.9273 192.834C35.2711 193.596 34.2809 193.986 32.9566 194.006H32.7457V193.092H32.9742C33.8688 193.076 34.5563 192.844 35.0367 192.395C35.5172 191.941 35.7789 191.227 35.8219 190.25ZM34.152 190.25C34.5152 190.25 34.8492 190.139 35.1539 189.916C35.4625 189.693 35.6871 189.418 35.8277 189.09V188.656C35.8277 187.945 35.6734 187.367 35.3648 186.922C35.0563 186.477 34.6656 186.254 34.193 186.254C33.7164 186.254 33.3336 186.438 33.0445 186.805C32.7555 187.168 32.6109 187.648 32.6109 188.246C32.6109 188.828 32.7496 189.309 33.027 189.688C33.3082 190.062 33.6832 190.25 34.152 190.25ZM43.7297 187.695C43.7297 188.121 43.6164 188.5 43.3898 188.832C43.1672 189.164 42.8645 189.424 42.4816 189.611C42.927 189.803 43.2785 190.082 43.5363 190.449C43.798 190.816 43.9289 191.232 43.9289 191.697C43.9289 192.436 43.6789 193.023 43.1789 193.461C42.6828 193.898 42.0285 194.117 41.216 194.117C40.3957 194.117 39.7375 193.898 39.2414 193.461C38.7492 193.02 38.5031 192.432 38.5031 191.697C38.5031 191.236 38.6281 190.82 38.8781 190.449C39.132 190.078 39.4816 189.797 39.927 189.605C39.548 189.418 39.2492 189.158 39.0305 188.826C38.8117 188.494 38.7023 188.117 38.7023 187.695C38.7023 186.977 38.9328 186.406 39.3938 185.984C39.8547 185.562 40.4621 185.352 41.216 185.352C41.966 185.352 42.5715 185.562 43.0324 185.984C43.4973 186.406 43.7297 186.977 43.7297 187.695ZM42.8449 191.674C42.8449 191.197 42.6926 190.809 42.3879 190.508C42.0871 190.207 41.6926 190.057 41.2043 190.057C40.716 190.057 40.3234 190.205 40.0266 190.502C39.7336 190.799 39.5871 191.189 39.5871 191.674C39.5871 192.158 39.7297 192.539 40.0148 192.816C40.3039 193.094 40.7043 193.232 41.216 193.232C41.7238 193.232 42.1223 193.094 42.4113 192.816C42.7004 192.535 42.8449 192.154 42.8449 191.674ZM41.216 186.242C40.7902 186.242 40.4445 186.375 40.1789 186.641C39.9172 186.902 39.7863 187.26 39.7863 187.713C39.7863 188.146 39.9152 188.498 40.173 188.768C40.4348 189.033 40.7824 189.166 41.216 189.166C41.6496 189.166 41.9953 189.033 42.2531 188.768C42.5148 188.498 42.6457 188.146 42.6457 187.713C42.6457 187.279 42.5109 186.926 42.2414 186.652C41.9719 186.379 41.6301 186.242 41.216 186.242ZM45.3504 187.109C45.3504 186.598 45.5125 186.176 45.8367 185.844C46.1648 185.512 46.5848 185.346 47.0965 185.346C47.616 185.346 48.0359 185.514 48.3563 185.85C48.6805 186.182 48.8426 186.613 48.8426 187.145V187.561C48.8426 188.076 48.6785 188.498 48.3504 188.826C48.0262 189.15 47.6121 189.312 47.1082 189.312C46.6004 189.312 46.1805 189.15 45.8484 188.826C45.5164 188.498 45.3504 188.062 45.3504 187.52V187.109ZM46.159 187.561C46.159 187.865 46.2449 188.117 46.4168 188.316C46.5887 188.512 46.8191 188.609 47.1082 188.609C47.3855 188.609 47.6082 188.514 47.7762 188.322C47.948 188.131 48.034 187.869 48.034 187.537V187.109C48.034 186.805 47.95 186.553 47.782 186.354C47.6141 186.154 47.3855 186.055 47.0965 186.055C46.8074 186.055 46.5789 186.154 46.4109 186.354C46.243 186.553 46.159 186.812 46.159 187.133V187.561ZM49.5047 191.908C49.5047 191.396 49.6668 190.977 49.991 190.648C50.3191 190.316 50.7391 190.15 51.2508 190.15C51.7625 190.15 52.1824 190.314 52.5105 190.643C52.8387 190.971 53.0027 191.406 53.0027 191.949V192.365C53.0027 192.877 52.8387 193.299 52.5105 193.631C52.1863 193.959 51.7703 194.123 51.2625 194.123C50.7547 194.123 50.3348 193.961 50.0027 193.637C49.6707 193.309 49.5047 192.873 49.5047 192.33V191.908ZM50.3133 192.365C50.3133 192.674 50.3992 192.928 50.5711 193.127C50.743 193.322 50.9734 193.42 51.2625 193.42C51.5438 193.42 51.7684 193.324 51.9363 193.133C52.1043 192.938 52.1883 192.674 52.1883 192.342V191.908C52.1883 191.6 52.1023 191.348 51.9305 191.152C51.7625 190.957 51.5359 190.859 51.2508 190.859C50.9734 190.859 50.7469 190.957 50.5711 191.152C50.3992 191.344 50.3133 191.604 50.3133 191.932V192.365ZM47.3543 193.355L46.7391 192.969L50.9051 186.301L51.5203 186.688L47.3543 193.355Z" fill="#4684F0"/>
<path d="M30.8848 206.395H28.1426V214H27.0234V206.395H24.2871V205.469H30.8848V206.395ZM31.2574 210.771C31.2574 210.15 31.3785 209.592 31.6207 209.096C31.8668 208.6 32.2066 208.217 32.6402 207.947C33.0777 207.678 33.5758 207.543 34.1344 207.543C34.9977 207.543 35.6949 207.842 36.2262 208.439C36.7613 209.037 37.0289 209.832 37.0289 210.824V210.9C37.0289 211.518 36.9098 212.072 36.6715 212.564C36.4371 213.053 36.0992 213.434 35.6578 213.707C35.2203 213.98 34.7164 214.117 34.1461 214.117C33.2867 214.117 32.5895 213.818 32.0543 213.221C31.523 212.623 31.2574 211.832 31.2574 210.848V210.771ZM32.3473 210.9C32.3473 211.604 32.5094 212.168 32.8336 212.594C33.1617 213.02 33.5992 213.232 34.1461 213.232C34.6969 213.232 35.1344 213.018 35.4586 212.588C35.7828 212.154 35.9449 211.549 35.9449 210.771C35.9449 210.076 35.7789 209.514 35.4469 209.084C35.1188 208.65 34.6813 208.434 34.1344 208.434C33.5992 208.434 33.1676 208.646 32.8395 209.072C32.5113 209.498 32.3473 210.107 32.3473 210.9ZM40.009 206.125V207.66H41.1926V208.498H40.009V212.43C40.009 212.684 40.0617 212.875 40.1672 213.004C40.2727 213.129 40.4523 213.191 40.7063 213.191C40.8313 213.191 41.0031 213.168 41.2219 213.121V214C40.9367 214.078 40.6594 214.117 40.3898 214.117C39.9055 214.117 39.5402 213.971 39.2941 213.678C39.048 213.385 38.925 212.969 38.925 212.43V208.498H37.7707V207.66H38.925V206.125H40.009ZM46.5281 214C46.4656 213.875 46.4148 213.652 46.3758 213.332C45.8719 213.855 45.2703 214.117 44.5711 214.117C43.9461 214.117 43.4324 213.941 43.0301 213.59C42.6316 213.234 42.4324 212.785 42.4324 212.242C42.4324 211.582 42.6824 211.07 43.1824 210.707C43.6863 210.34 44.3934 210.156 45.3035 210.156H46.3582V209.658C46.3582 209.279 46.2449 208.979 46.0184 208.756C45.7918 208.529 45.4578 208.416 45.0164 208.416C44.6297 208.416 44.3055 208.514 44.0438 208.709C43.782 208.904 43.6512 209.141 43.6512 209.418H42.5613C42.5613 209.102 42.6727 208.797 42.8953 208.504C43.1219 208.207 43.4266 207.973 43.8094 207.801C44.1961 207.629 44.6199 207.543 45.0809 207.543C45.8113 207.543 46.3836 207.727 46.7977 208.094C47.2117 208.457 47.4266 208.959 47.4422 209.6V212.518C47.4422 213.1 47.5164 213.562 47.6648 213.906V214H46.5281ZM44.7293 213.174C45.0691 213.174 45.3914 213.086 45.6961 212.91C46.0008 212.734 46.2215 212.506 46.3582 212.225V210.924H45.5086C44.1805 210.924 43.5164 211.312 43.5164 212.09C43.5164 212.43 43.6297 212.695 43.8563 212.887C44.0828 213.078 44.3738 213.174 44.7293 213.174ZM50.4691 214H49.3852V205H50.4691V214ZM56.7809 210.66V214H55.6559V205.469H58.8023C59.7359 205.469 60.4664 205.707 60.9937 206.184C61.525 206.66 61.7906 207.291 61.7906 208.076C61.7906 208.904 61.5309 209.543 61.0113 209.992C60.4957 210.438 59.7555 210.66 58.7906 210.66H56.7809ZM56.7809 209.74H58.8023C59.4039 209.74 59.8648 209.6 60.1852 209.318C60.5055 209.033 60.6656 208.623 60.6656 208.088C60.6656 207.58 60.5055 207.174 60.1852 206.869C59.8648 206.564 59.4254 206.406 58.8668 206.395H56.7809V209.74ZM64.2316 207.66L64.2668 208.457C64.7512 207.848 65.384 207.543 66.1652 207.543C67.5051 207.543 68.1809 208.299 68.1926 209.811V214H67.1086V209.805C67.1047 209.348 66.9992 209.01 66.7922 208.791C66.5891 208.572 66.2707 208.463 65.8371 208.463C65.4855 208.463 65.177 208.557 64.9113 208.744C64.6457 208.932 64.4387 209.178 64.2902 209.482V214H63.2062V207.66H64.2316ZM71.2781 213.08H75.3211V214H70.1473V205.469H71.2781V213.08Z" fill="#4684F0"/>
<path d="M322.885 206.395H320.143V214H319.023V206.395H316.287V205.469H322.885V206.395ZM323.257 210.771C323.257 210.15 323.379 209.592 323.621 209.096C323.867 208.6 324.207 208.217 324.64 207.947C325.078 207.678 325.576 207.543 326.134 207.543C326.998 207.543 327.695 207.842 328.226 208.439C328.761 209.037 329.029 209.832 329.029 210.824V210.9C329.029 211.518 328.91 212.072 328.671 212.564C328.437 213.053 328.099 213.434 327.658 213.707C327.22 213.98 326.716 214.117 326.146 214.117C325.287 214.117 324.589 213.818 324.054 213.221C323.523 212.623 323.257 211.832 323.257 210.848V210.771ZM324.347 210.9C324.347 211.604 324.509 212.168 324.834 212.594C325.162 213.02 325.599 213.232 326.146 213.232C326.697 213.232 327.134 213.018 327.459 212.588C327.783 212.154 327.945 211.549 327.945 210.771C327.945 210.076 327.779 209.514 327.447 209.084C327.119 208.65 326.681 208.434 326.134 208.434C325.599 208.434 325.168 208.646 324.839 209.072C324.511 209.498 324.347 210.107 324.347 210.9ZM330.275 210.777C330.275 209.805 330.505 209.023 330.966 208.434C331.427 207.84 332.03 207.543 332.777 207.543C333.519 207.543 334.107 207.797 334.54 208.305V205H335.624V214H334.628L334.575 213.32C334.142 213.852 333.538 214.117 332.765 214.117C332.03 214.117 331.431 213.816 330.966 213.215C330.505 212.613 330.275 211.828 330.275 210.859V210.777ZM331.359 210.9C331.359 211.619 331.507 212.182 331.804 212.588C332.101 212.994 332.511 213.197 333.034 213.197C333.722 213.197 334.224 212.889 334.54 212.271V209.359C334.216 208.762 333.718 208.463 333.046 208.463C332.515 208.463 332.101 208.668 331.804 209.078C331.507 209.488 331.359 210.096 331.359 210.9ZM341.376 214C341.313 213.875 341.263 213.652 341.223 213.332C340.72 213.855 340.118 214.117 339.419 214.117C338.794 214.117 338.28 213.941 337.878 213.59C337.479 213.234 337.28 212.785 337.28 212.242C337.28 211.582 337.53 211.07 338.03 210.707C338.534 210.34 339.241 210.156 340.151 210.156H341.206V209.658C341.206 209.279 341.093 208.979 340.866 208.756C340.639 208.529 340.305 208.416 339.864 208.416C339.477 208.416 339.153 208.514 338.891 208.709C338.63 208.904 338.499 209.141 338.499 209.418H337.409C337.409 209.102 337.52 208.797 337.743 208.504C337.97 208.207 338.274 207.973 338.657 207.801C339.044 207.629 339.468 207.543 339.929 207.543C340.659 207.543 341.231 207.727 341.645 208.094C342.059 208.457 342.274 208.959 342.29 209.6V212.518C342.29 213.1 342.364 213.562 342.513 213.906V214H341.376ZM339.577 213.174C339.917 213.174 340.239 213.086 340.544 212.91C340.848 212.734 341.069 212.506 341.206 212.225V210.924H340.356C339.028 210.924 338.364 211.312 338.364 212.09C338.364 212.43 338.477 212.695 338.704 212.887C338.93 213.078 339.221 213.174 339.577 213.174ZM346.12 212.412L347.596 207.66H348.756L346.207 214.979C345.813 216.033 345.186 216.561 344.327 216.561L344.121 216.543L343.717 216.467V215.588L344.01 215.611C344.377 215.611 344.663 215.537 344.866 215.389C345.073 215.24 345.243 214.969 345.375 214.574L345.616 213.93L343.354 207.66H344.538L346.12 212.412Z" fill="#FF5238"/>
<path d="M330.115 194H329.025V186.775L326.84 187.578V186.594L329.945 185.428H330.115V194ZM333.576 193.432C333.576 193.244 333.63 193.088 333.74 192.963C333.853 192.838 334.021 192.775 334.244 192.775C334.466 192.775 334.634 192.838 334.748 192.963C334.865 193.088 334.923 193.244 334.923 193.432C334.923 193.611 334.865 193.762 334.748 193.883C334.634 194.004 334.466 194.064 334.244 194.064C334.021 194.064 333.853 194.004 333.74 193.883C333.63 193.762 333.576 193.611 333.576 193.432ZM337.253 189.723L337.687 185.469H342.058V186.471H338.607L338.349 188.797C338.767 188.551 339.241 188.428 339.773 188.428C340.55 188.428 341.167 188.686 341.624 189.201C342.081 189.713 342.31 190.406 342.31 191.281C342.31 192.16 342.071 192.854 341.595 193.361C341.122 193.865 340.46 194.117 339.609 194.117C338.855 194.117 338.239 193.908 337.763 193.49C337.286 193.072 337.015 192.494 336.948 191.756H337.974C338.04 192.244 338.214 192.613 338.495 192.863C338.777 193.109 339.148 193.232 339.609 193.232C340.113 193.232 340.507 193.061 340.792 192.717C341.081 192.373 341.226 191.898 341.226 191.293C341.226 190.723 341.07 190.266 340.757 189.922C340.448 189.574 340.036 189.4 339.521 189.4C339.048 189.4 338.677 189.504 338.407 189.711L338.12 189.945L337.253 189.723ZM343.55 187.109C343.55 186.598 343.712 186.176 344.036 185.844C344.364 185.512 344.784 185.346 345.296 185.346C345.815 185.346 346.235 185.514 346.555 185.85C346.88 186.182 347.042 186.613 347.042 187.145V187.561C347.042 188.076 346.878 188.498 346.55 188.826C346.225 189.15 345.811 189.312 345.307 189.312C344.8 189.312 344.38 189.15 344.048 188.826C343.716 188.498 343.55 188.062 343.55 187.52V187.109ZM344.358 187.561C344.358 187.865 344.444 188.117 344.616 188.316C344.788 188.512 345.018 188.609 345.307 188.609C345.585 188.609 345.807 188.514 345.975 188.322C346.147 188.131 346.233 187.869 346.233 187.537V187.109C346.233 186.805 346.149 186.553 345.981 186.354C345.813 186.154 345.585 186.055 345.296 186.055C345.007 186.055 344.778 186.154 344.61 186.354C344.442 186.553 344.358 186.812 344.358 187.133V187.561ZM347.704 191.908C347.704 191.396 347.866 190.977 348.19 190.648C348.518 190.316 348.938 190.15 349.45 190.15C349.962 190.15 350.382 190.314 350.71 190.643C351.038 190.971 351.202 191.406 351.202 191.949V192.365C351.202 192.877 351.038 193.299 350.71 193.631C350.386 193.959 349.97 194.123 349.462 194.123C348.954 194.123 348.534 193.961 348.202 193.637C347.87 193.309 347.704 192.873 347.704 192.33V191.908ZM348.513 192.365C348.513 192.674 348.598 192.928 348.77 193.127C348.942 193.322 349.173 193.42 349.462 193.42C349.743 193.42 349.968 193.324 350.136 193.133C350.304 192.938 350.388 192.674 350.388 192.342V191.908C350.388 191.6 350.302 191.348 350.13 191.152C349.962 190.957 349.735 190.859 349.45 190.859C349.173 190.859 348.946 190.957 348.77 191.152C348.598 191.344 348.513 191.604 348.513 191.932V192.365ZM345.554 193.355L344.938 192.969L349.104 186.301L349.72 186.688L345.554 193.355Z" fill="#FF5238"/>
<path d="M324 191L323.295 190.295L320.5 193.085V187H319.5V193.085L316.71 190.29L316 191L320 195L324 191Z" fill="#FF5238"/>
<defs>
<linearGradient id="paint0_linear" x1="24" y1="66" x2="225.034" y2="251.792" gradientUnits="userSpaceOnUse">
<stop stop-color="#4684F0"/>
<stop offset="1" stop-color="#00E4FF"/>
</linearGradient>
</defs>
</svg>
