<svg width="66" height="66" viewBox="0 0 66 66" fill="none" xmlns="http://www.w3.org/2000/svg">
<circle cx="33.0001" cy="32.8058" r="32.8058" fill="#334B74"/>
<path d="M16.9575 14.9248C16.9575 13.1299 18.4126 11.6748 20.2075 11.6748H52.25V54.3257H20.2075C18.4126 54.3257 16.9575 52.8707 16.9575 51.0757V14.9248Z" fill="#282C31" stroke="#CACACA" stroke-width="1.5"/>
<path d="M16.9575 51.717C16.9575 51.1829 17.3905 50.75 17.9245 50.75H52.25V54.4009H19.6415C18.1592 54.4009 16.9575 53.1993 16.9575 51.717Z" fill="#212427" stroke="#CACACA" stroke-width="1.5"/>
<path d="M33.4999 28.2173H35.7074V26.0098H33.4999V28.2173ZM33.4999 37.0475H35.7074V30.4249H33.4999V37.0475ZM34.5926 42.5664C28.4998 42.5664 23.5659 37.6215 23.5659 31.5287C23.5659 25.4358 28.4998 20.4909 34.5926 20.4909C40.6965 20.4909 45.6414 25.4358 45.6414 31.5287C45.6414 37.6215 40.6965 42.5664 34.5926 42.5664ZM34.6037 22.6985C29.725 22.6985 25.7735 26.65 25.7735 31.5287C25.7735 36.4073 29.725 40.3589 34.6037 40.3589C39.4823 40.3589 43.4338 36.4073 43.4338 31.5287C43.4338 26.65 39.4823 22.6985 34.6037 22.6985Z" fill="#4684F0"/>
<line x1="19.1509" y1="19.769" x2="13.9999" y2="19.769" stroke="#CACACA" stroke-width="1.5"/>
<line x1="19.1509" y1="27.8633" x2="13.9999" y2="27.8633" stroke="#CACACA" stroke-width="1.5"/>
<line x1="19.1509" y1="35.958" x2="13.9999" y2="35.958" stroke="#CACACA" stroke-width="1.5"/>
<line x1="19.1509" y1="44.0522" x2="13.9999" y2="44.0522" stroke="#CACACA" stroke-width="1.5"/>
</svg>
