<svg width="138" height="37" viewBox="0 0 138 37" fill="none" xmlns="http://www.w3.org/2000/svg">
<path d="M15.407 11.5597L15.4597 11.7247C15.6238 12.2491 15.5622 12.8139 15.2887 13.2954C15.0151 13.777 14.5517 14.1362 13.9997 14.2947L13.8258 14.3447C13.3503 14.4806 12.8399 14.4559 12.3816 14.2747L4.17377 24.2046C4.28714 24.3682 4.37418 24.5468 4.43204 24.7346L4.48475 24.8996C4.65043 25.4234 4.59031 25.9882 4.31758 26.47C4.04485 26.9518 3.58179 27.3113 3.02999 27.4696L2.85605 27.5196C2.30248 27.6767 1.70582 27.6192 1.19695 27.3595C0.688072 27.0999 0.308526 26.6594 0.14156 26.1346L0.0888512 25.9696C-0.0737168 25.4452 -0.0115577 24.8811 0.261823 24.3999C0.535204 23.9187 0.99772 23.5592 1.54888 23.3996L1.72282 23.3496C2.14636 23.222 2.60118 23.222 3.02472 23.3496L11.2894 13.3497C11.2176 13.2222 11.1593 13.0882 11.1155 12.9497L11.0628 12.7847C10.8988 12.2602 10.9603 11.6955 11.2339 11.2139C11.5074 10.7324 11.9709 10.3731 12.5228 10.2147L12.6968 10.1647C13.2512 10.0092 13.848 10.0688 14.3561 10.3303C14.8643 10.5919 15.2422 11.034 15.407 11.5597ZM14.5373 20.1446L14.3634 20.1946C13.8114 20.3531 13.348 20.7123 13.0744 21.1939C12.8009 21.6755 12.7394 22.2402 12.9034 22.7646L12.9561 22.9296C12.9999 23.0681 13.0581 23.2021 13.13 23.3296L5.54419 32.4996C5.12029 32.3743 4.6662 32.3743 4.24229 32.4996L4.06835 32.5496C3.52523 32.7123 3.07093 33.0704 2.80291 33.5471C2.53489 34.0238 2.47449 34.5812 2.63468 35.0996L2.68739 35.2646C2.85441 35.7882 3.23313 36.2278 3.74078 36.4874C4.24843 36.7469 4.84374 36.8052 5.39661 36.6496L5.57055 36.5996C6.12424 36.4351 6.58658 36.069 6.8563 35.5817C7.12601 35.0943 7.1811 34.5254 7.00949 33.9996L6.95679 33.8346C6.89437 33.65 6.80759 33.4736 6.69851 33.3096L14.2306 24.2446C14.6889 24.4258 15.1994 24.4506 15.6748 24.3146L15.8487 24.2646C16.4007 24.1062 16.8641 23.7469 17.1377 23.2654C17.4113 22.7838 17.4728 22.2191 17.3088 21.6946L17.2561 21.5296C17.0891 21.004 16.7089 20.5628 16.1991 20.303C15.6892 20.0433 15.0915 19.9863 14.5373 20.1446ZM26.5865 5.08469L26.4126 5.13469C25.861 5.29535 25.3985 5.65576 25.1252 6.13778C24.8519 6.6198 24.7898 7.18459 24.9526 7.70969L25.0053 7.87469C25.0505 8.01345 25.1106 8.14747 25.1845 8.27469L20.1561 14.3497C19.7325 14.2221 19.2777 14.2221 18.8542 14.3497L18.6802 14.3997C18.1284 14.558 17.6654 14.9175 17.3927 15.3993C17.1199 15.8811 17.0598 16.4458 17.2255 16.9696L17.2729 17.1346C17.4444 17.6558 17.8255 18.0919 18.3336 18.3484C18.8417 18.6049 19.4359 18.661 19.9874 18.5046L20.1613 18.4546C20.4352 18.3757 20.6899 18.2463 20.911 18.0738C21.132 17.9013 21.3151 17.6892 21.4496 17.4496C21.5841 17.2099 21.6675 16.9475 21.695 16.6772C21.7225 16.407 21.6935 16.1343 21.6098 15.8746L21.5623 15.7096C21.5004 15.5224 21.4117 15.3441 21.2988 15.1796L26.264 9.17969C26.7254 9.35639 27.2365 9.37931 27.7134 9.24469L27.8874 9.19469C28.4392 9.03635 28.9022 8.67685 29.175 8.19504C29.4477 7.71324 29.5078 7.14849 29.3421 6.62469L29.2894 6.45969C29.1202 5.9393 28.7415 5.50314 28.2356 5.24576C27.7296 4.98838 27.1371 4.93051 26.5865 5.08469ZM28.9426 14.0847C28.3662 14.2478 27.8812 14.6207 27.5936 15.1219C27.306 15.6231 27.2392 16.2119 27.4077 16.7596V16.8446C27.4503 16.9835 27.5086 17.1177 27.5817 17.2446L21.0142 25.3046C21.0038 25.3186 20.989 25.329 20.9719 25.3344C20.9549 25.3398 20.9364 25.3399 20.9193 25.3346C20.5135 25.2196 20.0811 25.2196 19.6754 25.3346L19.591 25.3596C19.0155 25.525 18.5324 25.8996 18.247 26.4017C17.9616 26.9038 17.8972 27.4926 18.0678 28.0396C18.2377 28.5893 18.6308 29.0523 19.1606 29.3271C19.6904 29.6018 20.3135 29.6657 20.8929 29.5046C21.4683 29.3393 21.9511 28.9645 22.2356 28.4621C22.5202 27.9598 22.5832 27.371 22.411 26.8246L22.3846 26.7446C22.3341 26.5466 22.2505 26.3575 22.1369 26.1846L28.6833 18.1846C28.6968 18.1718 28.7138 18.1627 28.7323 18.1583C28.7509 18.1539 28.7704 18.1543 28.7887 18.1596C29.2328 18.3198 29.7204 18.3357 30.1749 18.2046L30.2645 18.1796C30.8387 18.0143 31.3205 17.6402 31.605 17.139C31.8894 16.6379 31.9532 16.0503 31.7825 15.5046C31.6039 14.9601 31.2055 14.5047 30.6743 14.2378C30.143 13.9708 29.5221 13.914 28.9468 14.0797L28.9426 14.0847Z" fill="url(#paint0_linear)"/>
<path d="M40.4278 4.21526C40.4277 3.9472 40.5377 3.68966 40.7345 3.49734C40.9314 3.30502 41.1995 3.19306 41.4819 3.18526H48.6134C50.597 3.08312 52.5422 3.73236 54.0213 4.99026C54.9913 5.94444 55.5221 7.22494 55.4972 8.55024V8.60024C55.4972 11.5702 53.3888 13.3002 50.4108 13.8402L55.1546 19.6152C55.3682 19.8138 55.4944 20.0818 55.5077 20.3652C55.4908 20.6303 55.37 20.8798 55.1691 21.0648C54.9683 21.2498 54.7018 21.357 54.4219 21.3652C54.2183 21.3603 54.019 21.3081 53.8416 21.2131C53.6643 21.118 53.5142 20.9831 53.4047 20.8202L48.0442 14.2202H42.573V20.3202C42.5775 20.4565 42.5531 20.5923 42.5012 20.7195C42.4494 20.8467 42.3711 20.9627 42.271 21.0606C42.171 21.1585 42.0512 21.2364 41.9188 21.2895C41.7864 21.3427 41.6442 21.3701 41.5004 21.3701C41.3566 21.3701 41.2143 21.3427 41.082 21.2895C40.9496 21.2364 40.8298 21.1585 40.7298 21.0606C40.6297 20.9627 40.5514 20.8467 40.4996 20.7195C40.4477 20.5923 40.4233 20.4565 40.4278 20.3202V4.21526ZM48.4184 12.3952C51.2752 12.3952 53.315 10.9952 53.315 8.68024V8.63024C53.315 6.41024 51.5229 5.07026 48.45 5.07026H42.573V12.3952H48.4184Z" fill="black"/>
<path d="M58.919 19.9002L66.6408 3.90029C66.7378 3.63303 66.9218 3.40187 67.1662 3.24013C67.4106 3.07839 67.7028 2.99441 68.0007 3.00029H68.1114C68.4052 2.99536 68.693 3.08018 68.9322 3.24224C69.1713 3.40429 69.3492 3.63499 69.4396 3.90029L77.1667 19.9002C77.2429 20.0577 77.2876 20.2273 77.2985 20.4002C77.2985 20.6655 77.1874 20.9198 76.9897 21.1073C76.7921 21.2949 76.5239 21.4002 76.2443 21.4002C76.0095 21.3901 75.7834 21.3132 75.5954 21.1794C75.4073 21.0456 75.2661 20.8612 75.1902 20.6502L73.2083 16.5002H62.7878L60.8007 20.7052C60.7311 20.9159 60.5899 21.0989 60.3992 21.2255C60.2086 21.3521 59.979 21.4153 59.7465 21.4052C59.6176 21.4059 59.4898 21.3823 59.3705 21.3358C59.2512 21.2893 59.1429 21.2208 59.0517 21.1343C58.9605 21.0478 58.8884 20.945 58.8393 20.8319C58.7903 20.7188 58.7654 20.5976 58.7661 20.4752C58.7655 20.2754 58.82 20.0789 58.9243 19.9052L58.919 19.9002ZM72.3808 14.6152L67.9954 5.38025L63.6206 14.6152H72.3808Z" fill="black"/>
<path d="M81.6006 4.09043C81.5961 3.95413 81.6205 3.81836 81.6724 3.69117C81.7243 3.56399 81.8026 3.44799 81.9026 3.35006C82.0027 3.25214 82.1224 3.17428 82.2548 3.1211C82.3872 3.06793 82.5295 3.04053 82.6732 3.04053C82.817 3.04053 82.9593 3.06793 83.0917 3.1211C83.2241 3.17428 83.3438 3.25214 83.4439 3.35006C83.5439 3.44799 83.6222 3.56399 83.6741 3.69117C83.726 3.81836 83.7504 3.95413 83.7459 4.09043V20.3204C83.7504 20.4567 83.726 20.5925 83.6741 20.7196C83.6222 20.8468 83.5439 20.9628 83.4439 21.0607C83.3438 21.1587 83.2241 21.2365 83.0917 21.2897C82.9593 21.3429 82.817 21.3703 82.6732 21.3703C82.5295 21.3703 82.3872 21.3429 82.2548 21.2897C82.1224 21.2365 82.0027 21.1587 81.9026 21.0607C81.8026 20.9628 81.7243 20.8468 81.6724 20.7196C81.6205 20.5925 81.5961 20.4567 81.6006 20.3204V4.09043Z" fill="black"/>
<path d="M89.3225 4.11543C89.3225 3.85022 89.4335 3.59586 89.6312 3.40833C89.8289 3.22079 90.0971 3.11543 90.3766 3.11543H90.6613C90.8797 3.12026 91.0934 3.17675 91.2831 3.27978C91.4727 3.38281 91.6322 3.52912 91.7471 3.70543L103.306 17.7054V4.06543C103.306 3.80022 103.417 3.54586 103.615 3.35833C103.813 3.17079 104.081 3.06543 104.36 3.06543C104.64 3.06543 104.908 3.17079 105.106 3.35833C105.303 3.54586 105.414 3.80022 105.414 4.06543V20.3654C105.42 20.4897 105.399 20.614 105.353 20.7303C105.306 20.8466 105.235 20.9527 105.144 21.0421C105.052 21.1314 104.943 21.2022 104.822 21.2501C104.701 21.2979 104.57 21.3219 104.439 21.3204H104.334C104.11 21.304 103.894 21.2398 103.7 21.1324C103.506 21.025 103.341 20.8773 103.216 20.7005L91.415 6.38545V20.3854C91.415 20.6506 91.3039 20.905 91.1062 21.0925C90.9085 21.28 90.6404 21.3854 90.3608 21.3854C90.0812 21.3854 89.8131 21.28 89.6154 21.0925C89.4177 20.905 89.3066 20.6506 89.3066 20.3854L89.3225 4.11543Z" fill="black"/>
<path d="M44.612 34.2695C44.284 34.2695 44.12 34.0975 44.12 33.7535V26.5775H41.42C41.116 26.5775 40.964 26.4335 40.964 26.1455C40.964 25.8655 41.116 25.7255 41.42 25.7255H47.816C48.12 25.7255 48.272 25.8655 48.272 26.1455C48.272 26.4335 48.12 26.5775 47.816 26.5775H45.116V33.7535C45.116 34.0975 44.948 34.2695 44.612 34.2695Z" fill="black"/>
<path d="M53.1147 34.2695C52.7867 34.2695 52.6227 34.0975 52.6227 33.7535V26.2295C52.6227 25.8935 52.7907 25.7255 53.1267 25.7255H55.9707C56.8827 25.7255 57.5787 25.9375 58.0587 26.3615C58.5467 26.7855 58.7907 27.3895 58.7907 28.1735C58.7907 28.7975 58.6187 29.3095 58.2747 29.7095C57.9387 30.1095 57.4587 30.3695 56.8347 30.4895C57.2027 30.6175 57.5187 30.9295 57.7827 31.4255L58.9347 33.5735C59.0227 33.7415 59.0387 33.9015 58.9827 34.0535C58.9267 34.1975 58.7987 34.2695 58.5987 34.2695C58.4627 34.2695 58.3507 34.2415 58.2627 34.1855C58.1747 34.1215 58.0987 34.0255 58.0347 33.8975L56.7267 31.4735C56.5427 31.1295 56.3307 30.9015 56.0907 30.7895C55.8507 30.6695 55.5347 30.6095 55.1427 30.6095H53.6067V33.7535C53.6067 34.0975 53.4427 34.2695 53.1147 34.2695ZM53.6067 29.8295H55.8267C57.1547 29.8295 57.8187 29.2775 57.8187 28.1735C57.8187 27.0855 57.1547 26.5415 55.8267 26.5415H53.6067V29.8295Z" fill="black"/>
<path d="M63.7012 34.2695C63.5092 34.2695 63.3772 34.2055 63.3052 34.0775C63.2332 33.9495 63.2412 33.7895 63.3292 33.5975L66.6292 26.0855C66.7572 25.7895 66.9532 25.6415 67.2172 25.6415C67.3372 25.6415 67.4452 25.6775 67.5412 25.7495C67.6452 25.8135 67.7292 25.9255 67.7932 26.0855L71.1052 33.5975C71.1932 33.7895 71.2052 33.9495 71.1412 34.0775C71.0772 34.2055 70.9492 34.2695 70.7572 34.2695C70.6132 34.2695 70.4972 34.2335 70.4092 34.1615C70.3212 34.0815 70.2492 33.9695 70.1932 33.8255L69.4132 32.0255H65.0092L64.2412 33.8255C64.1132 34.1215 63.9332 34.2695 63.7012 34.2695ZM67.2052 26.8775L65.3692 31.1975H69.0652L67.2292 26.8775H67.2052Z" fill="black"/>
<path d="M76.5234 34.1855C76.1634 34.1855 75.9834 34.0055 75.9834 33.6455V26.2655C75.9834 25.9055 76.1634 25.7255 76.5234 25.7255H78.8394C80.2074 25.7255 81.2634 26.0895 82.0074 26.8175C82.7514 27.5375 83.1234 28.5815 83.1234 29.9495C83.1234 31.3175 82.7514 32.3655 82.0074 33.0935C81.2634 33.8215 80.2074 34.1855 78.8394 34.1855H76.5234ZM76.9674 33.3455H78.7674C80.9754 33.3455 82.0794 32.2135 82.0794 29.9495C82.0794 27.6935 80.9754 26.5655 78.7674 26.5655H76.9674V33.3455Z" fill="black"/>
<path d="M88.7896 34.1855C88.4296 34.1855 88.2496 34.0055 88.2496 33.6455V26.2655C88.2496 25.9055 88.4296 25.7255 88.7896 25.7255H93.2536C93.5336 25.7255 93.6736 25.8615 93.6736 26.1335C93.6736 26.4135 93.5336 26.5535 93.2536 26.5535H89.2096V29.4815H93.0016C93.2816 29.4815 93.4216 29.6175 93.4216 29.8895C93.4216 30.1695 93.2816 30.3095 93.0016 30.3095H89.2096V33.3575H93.2536C93.5336 33.3575 93.6736 33.4935 93.6736 33.7655C93.6736 34.0455 93.5336 34.1855 93.2536 34.1855H88.7896Z" fill="black"/>
<path d="M99.0977 34.2695C98.7697 34.2695 98.6057 34.0975 98.6057 33.7535V26.2295C98.6057 25.8935 98.7737 25.7255 99.1097 25.7255H101.954C102.866 25.7255 103.562 25.9375 104.042 26.3615C104.53 26.7855 104.774 27.3895 104.774 28.1735C104.774 28.7975 104.602 29.3095 104.258 29.7095C103.922 30.1095 103.442 30.3695 102.818 30.4895C103.186 30.6175 103.502 30.9295 103.766 31.4255L104.918 33.5735C105.006 33.7415 105.022 33.9015 104.966 34.0535C104.91 34.1975 104.782 34.2695 104.582 34.2695C104.446 34.2695 104.334 34.2415 104.246 34.1855C104.158 34.1215 104.082 34.0255 104.018 33.8975L102.71 31.4735C102.526 31.1295 102.314 30.9015 102.074 30.7895C101.834 30.6695 101.518 30.6095 101.126 30.6095H99.5897V33.7535C99.5897 34.0975 99.4257 34.2695 99.0977 34.2695ZM99.5897 29.8295H101.81C103.138 29.8295 103.802 29.2775 103.802 28.1735C103.802 27.0855 103.138 26.5415 101.81 26.5415H99.5897V29.8295Z" fill="black"/>
<rect x="109" width="29" height="13" rx="2" fill="url(#paint1_linear)"/>
<path d="M112.32 10C112.02 10 111.87 9.85 111.87 9.55V3.4C111.87 3.1 112.02 2.95 112.32 2.95H114.69C115.417 2.95 115.977 3.11333 116.37 3.44C116.77 3.76 116.97 4.21 116.97 4.79C116.97 5.17667 116.87 5.50667 116.67 5.78C116.47 6.05333 116.193 6.25333 115.84 6.38C116.247 6.48667 116.563 6.68333 116.79 6.97C117.023 7.25667 117.14 7.62 117.14 8.06C117.14 8.68667 116.937 9.16667 116.53 9.5C116.123 9.83333 115.55 10 114.81 10H112.32ZM112.67 6.1H114.57C115.63 6.1 116.16 5.68667 116.16 4.86C116.16 4.02667 115.63 3.61 114.57 3.61H112.67V6.1ZM112.67 9.34H114.73C115.797 9.34 116.33 8.91 116.33 8.05C116.33 7.19 115.797 6.76 114.73 6.76H112.67V9.34ZM119.078 10C118.778 10 118.628 9.85 118.628 9.55V3.4C118.628 3.1 118.778 2.95 119.078 2.95H122.798C123.031 2.95 123.148 3.06333 123.148 3.29C123.148 3.52333 123.031 3.64 122.798 3.64H119.428V6.08H122.588C122.821 6.08 122.938 6.19333 122.938 6.42C122.938 6.65333 122.821 6.77 122.588 6.77H119.428V9.31H122.798C123.031 9.31 123.148 9.42333 123.148 9.65C123.148 9.88333 123.031 10 122.798 10H119.078ZM126.471 10.07C126.198 10.07 126.061 9.92667 126.061 9.64V3.66H123.811C123.558 3.66 123.431 3.54 123.431 3.3C123.431 3.06667 123.558 2.95 123.811 2.95H129.141C129.394 2.95 129.521 3.06667 129.521 3.3C129.521 3.54 129.394 3.66 129.141 3.66H126.891V9.64C126.891 9.92667 126.751 10.07 126.471 10.07ZM129.435 10.07C129.275 10.07 129.165 10.0167 129.105 9.91C129.045 9.80333 129.052 9.67 129.125 9.51L131.875 3.25C131.982 3.00333 132.145 2.88 132.365 2.88C132.465 2.88 132.555 2.91 132.635 2.97C132.722 3.02333 132.792 3.11667 132.845 3.25L135.605 9.51C135.678 9.67 135.688 9.80333 135.635 9.91C135.582 10.0167 135.475 10.07 135.315 10.07C135.195 10.07 135.098 10.04 135.025 9.98C134.952 9.91333 134.892 9.82 134.845 9.7L134.195 8.2H130.525L129.885 9.7C129.778 9.94667 129.628 10.07 129.435 10.07ZM132.355 3.91L130.825 7.51H133.905L132.375 3.91H132.355Z" fill="white"/>
<defs>
<linearGradient id="paint0_linear" x1="-11.0292" y1="13.9493" x2="52.3379" y2="30.3015" gradientUnits="userSpaceOnUse">
<stop stop-color="#00E5FF"/>
<stop offset="1" stop-color="#4676E0"/>
</linearGradient>
<linearGradient id="paint1_linear" x1="98.966" y1="3.666" x2="145.251" y2="30.1928" gradientUnits="userSpaceOnUse">
<stop stop-color="#00E5FF"/>
<stop offset="1" stop-color="#4676E0"/>
</linearGradient>
</defs>
</svg>
