<svg width="106" height="34" viewBox="0 0 106 34" fill="none" xmlns="http://www.w3.org/2000/svg">
<path d="M15.407 8.55969L15.4597 8.72469C15.6238 9.24914 15.5622 9.81386 15.2887 10.2954C15.0151 10.777 14.5517 11.1362 13.9997 11.2947L13.8258 11.3447C13.3503 11.4806 12.8399 11.4559 12.3816 11.2747L4.17377 21.2046C4.28714 21.3682 4.37418 21.5468 4.43204 21.7346L4.48475 21.8996C4.65043 22.4234 4.59031 22.9882 4.31758 23.47C4.04485 23.9518 3.58179 24.3113 3.02999 24.4696L2.85605 24.5196C2.30248 24.6767 1.70582 24.6192 1.19695 24.3595C0.688072 24.0999 0.308526 23.6594 0.14156 23.1346L0.0888512 22.9696C-0.0737168 22.4452 -0.0115577 21.8811 0.261823 21.3999C0.535204 20.9187 0.99772 20.5592 1.54888 20.3996L1.72282 20.3496C2.14636 20.222 2.60118 20.222 3.02472 20.3496L11.2894 10.3497C11.2176 10.2222 11.1593 10.0882 11.1155 9.94969L11.0628 9.78469C10.8988 9.26024 10.9603 8.69552 11.2339 8.21395C11.5074 7.73238 11.9709 7.37313 12.5228 7.21469L12.6968 7.16469C13.2512 7.0092 13.848 7.06877 14.3561 7.33032C14.8643 7.59187 15.2422 8.03402 15.407 8.55969ZM14.5373 17.1446L14.3634 17.1946C13.8114 17.3531 13.348 17.7123 13.0744 18.1939C12.8009 18.6755 12.7394 19.2402 12.9034 19.7646L12.9561 19.9296C12.9999 20.0681 13.0581 20.2021 13.13 20.3296L5.54419 29.4996C5.12029 29.3743 4.6662 29.3743 4.24229 29.4996L4.06835 29.5496C3.52523 29.7123 3.07093 30.0704 2.80291 30.5471C2.53489 31.0238 2.47449 31.5812 2.63468 32.0996L2.68739 32.2646C2.85441 32.7882 3.23313 33.2278 3.74078 33.4874C4.24843 33.7469 4.84374 33.8052 5.39661 33.6496L5.57055 33.5996C6.12424 33.4351 6.58658 33.069 6.8563 32.5817C7.12601 32.0943 7.1811 31.5254 7.00949 30.9996L6.95679 30.8346C6.89437 30.65 6.80759 30.4736 6.69851 30.3096L14.2306 21.2446C14.6889 21.4258 15.1994 21.4506 15.6748 21.3146L15.8487 21.2646C16.4007 21.1062 16.8641 20.7469 17.1377 20.2654C17.4113 19.7838 17.4728 19.2191 17.3088 18.6946L17.2561 18.5296C17.0891 18.004 16.7089 17.5628 16.1991 17.303C15.6892 17.0433 15.0915 16.9863 14.5373 17.1446ZM26.5865 2.08469L26.4126 2.13469C25.861 2.29535 25.3985 2.65576 25.1252 3.13778C24.8519 3.6198 24.7898 4.18459 24.9526 4.70969L25.0053 4.87469C25.0505 5.01345 25.1106 5.14747 25.1845 5.27469L20.1561 11.3497C19.7325 11.2221 19.2777 11.2221 18.8542 11.3497L18.6802 11.3997C18.1284 11.558 17.6654 11.9175 17.3927 12.3993C17.1199 12.8811 17.0598 13.4458 17.2255 13.9696L17.2729 14.1346C17.4444 14.6558 17.8255 15.0919 18.3336 15.3484C18.8417 15.6049 19.4359 15.661 19.9874 15.5046L20.1613 15.4546C20.4352 15.3757 20.6899 15.2463 20.911 15.0738C21.132 14.9013 21.3151 14.6892 21.4496 14.4496C21.5841 14.2099 21.6675 13.9475 21.695 13.6772C21.7225 13.407 21.6935 13.1343 21.6098 12.8746L21.5623 12.7096C21.5004 12.5224 21.4117 12.3441 21.2988 12.1796L26.264 6.17969C26.7254 6.35639 27.2365 6.37931 27.7134 6.24469L27.8874 6.19469C28.4392 6.03635 28.9022 5.67685 29.175 5.19504C29.4477 4.71324 29.5078 4.14849 29.3421 3.62469L29.2894 3.45969C29.1202 2.9393 28.7415 2.50314 28.2356 2.24576C27.7296 1.98838 27.1371 1.93051 26.5865 2.08469ZM28.9426 11.0847C28.3662 11.2478 27.8812 11.6207 27.5936 12.1219C27.306 12.6231 27.2392 13.2119 27.4077 13.7596V13.8446C27.4503 13.9835 27.5086 14.1177 27.5817 14.2446L21.0142 22.3046C21.0038 22.3186 20.989 22.329 20.9719 22.3344C20.9549 22.3398 20.9364 22.3399 20.9193 22.3346C20.5135 22.2196 20.0811 22.2196 19.6754 22.3346L19.591 22.3596C19.0155 22.525 18.5324 22.8996 18.247 23.4017C17.9616 23.9038 17.8972 24.4926 18.0678 25.0396C18.2377 25.5893 18.6308 26.0523 19.1606 26.3271C19.6904 26.6018 20.3135 26.6657 20.8929 26.5046C21.4683 26.3393 21.9511 25.9645 22.2356 25.4621C22.5202 24.9598 22.5832 24.371 22.411 23.8246L22.3846 23.7446C22.3341 23.5466 22.2505 23.3575 22.1369 23.1846L28.6833 15.1846C28.6968 15.1718 28.7138 15.1627 28.7323 15.1583C28.7509 15.1539 28.7704 15.1543 28.7887 15.1596C29.2328 15.3198 29.7204 15.3357 30.1749 15.2046L30.2645 15.1796C30.8387 15.0143 31.3205 14.6402 31.605 14.139C31.8894 13.6379 31.9532 13.0503 31.7825 12.5046C31.6039 11.9601 31.2055 11.5047 30.6743 11.2378C30.143 10.9708 29.5221 10.914 28.9468 11.0797L28.9426 11.0847Z" fill="url(#paint0_linear)"/>
<path d="M40.4278 1.21526C40.4277 0.947204 40.5377 0.689663 40.7345 0.497343C40.9314 0.305023 41.1995 0.193063 41.4819 0.185263H48.6134C50.597 0.0831234 52.5422 0.732363 54.0213 1.99026C54.9913 2.94444 55.5221 4.22494 55.4972 5.55024V5.60024C55.4972 8.57024 53.3888 10.3002 50.4108 10.8402L55.1546 16.6152C55.3682 16.8138 55.4944 17.0818 55.5077 17.3652C55.4908 17.6303 55.37 17.8798 55.1691 18.0648C54.9683 18.2498 54.7018 18.357 54.4219 18.3652C54.2183 18.3603 54.019 18.3081 53.8416 18.2131C53.6643 18.118 53.5142 17.9831 53.4047 17.8202L48.0442 11.2202H42.573V17.3202C42.5775 17.4565 42.5531 17.5923 42.5012 17.7195C42.4494 17.8467 42.3711 17.9627 42.271 18.0606C42.171 18.1585 42.0512 18.2364 41.9188 18.2895C41.7864 18.3427 41.6442 18.3701 41.5004 18.3701C41.3566 18.3701 41.2143 18.3427 41.082 18.2895C40.9496 18.2364 40.8298 18.1585 40.7298 18.0606C40.6297 17.9627 40.5514 17.8467 40.4996 17.7195C40.4477 17.5923 40.4233 17.4565 40.4278 17.3202V1.21526ZM48.4184 9.39524C51.2752 9.39524 53.315 7.99524 53.315 5.68024V5.63024C53.315 3.41024 51.5229 2.07026 48.45 2.07026H42.573V9.39524H48.4184Z" fill="white"/>
<path d="M58.919 16.9002L66.6408 0.900289C66.7378 0.633029 66.9218 0.401869 67.1662 0.240129C67.4106 0.0783885 67.7028 -0.005591 68.0007 0.000288995H68.1114C68.4052 -0.004641 68.693 0.080179 68.9322 0.242239C69.1713 0.404289 69.3492 0.634989 69.4396 0.900289L77.1667 16.9002C77.2429 17.0577 77.2876 17.2273 77.2985 17.4002C77.2985 17.6655 77.1874 17.9198 76.9897 18.1073C76.7921 18.2949 76.5239 18.4002 76.2443 18.4002C76.0095 18.3901 75.7834 18.3132 75.5954 18.1794C75.4073 18.0456 75.2661 17.8612 75.1902 17.6502L73.2083 13.5002H62.7878L60.8007 17.7052C60.7311 17.9159 60.5899 18.0989 60.3992 18.2255C60.2086 18.3521 59.979 18.4153 59.7465 18.4052C59.6176 18.4059 59.4898 18.3823 59.3705 18.3358C59.2512 18.2893 59.1429 18.2208 59.0517 18.1343C58.9605 18.0478 58.8884 17.945 58.8393 17.8319C58.7903 17.7188 58.7654 17.5976 58.7661 17.4752C58.7655 17.2754 58.82 17.0789 58.9243 16.9052L58.919 16.9002ZM72.3808 11.6152L67.9954 2.38025L63.6206 11.6152H72.3808Z" fill="white"/>
<path d="M81.6006 1.09043C81.5961 0.954127 81.6205 0.818357 81.6724 0.691167C81.7243 0.563987 81.8026 0.447987 81.9026 0.350057C82.0027 0.252137 82.1224 0.174278 82.2548 0.121098C82.3872 0.0679276 82.5295 0.0405273 82.6732 0.0405273C82.817 0.0405273 82.9593 0.0679276 83.0917 0.121098C83.2241 0.174278 83.3438 0.252137 83.4439 0.350057C83.5439 0.447987 83.6222 0.563987 83.6741 0.691167C83.726 0.818357 83.7504 0.954127 83.7459 1.09043V17.3204C83.7504 17.4567 83.726 17.5925 83.6741 17.7196C83.6222 17.8468 83.5439 17.9628 83.4439 18.0607C83.3438 18.1587 83.2241 18.2365 83.0917 18.2897C82.9593 18.3429 82.817 18.3703 82.6732 18.3703C82.5295 18.3703 82.3872 18.3429 82.2548 18.2897C82.1224 18.2365 82.0027 18.1587 81.9026 18.0607C81.8026 17.9628 81.7243 17.8468 81.6724 17.7196C81.6205 17.5925 81.5961 17.4567 81.6006 17.3204V1.09043Z" fill="white"/>
<path d="M89.3225 1.11543C89.3225 0.85022 89.4335 0.59586 89.6312 0.40833C89.8289 0.22079 90.0971 0.11543 90.3766 0.11543H90.6613C90.8797 0.12026 91.0934 0.176749 91.2831 0.279779C91.4727 0.382809 91.6322 0.52912 91.7471 0.70543L103.306 14.7054V1.06543C103.306 0.80022 103.417 0.54586 103.615 0.35833C103.813 0.17079 104.081 0.0654297 104.36 0.0654297C104.64 0.0654297 104.908 0.17079 105.106 0.35833C105.303 0.54586 105.414 0.80022 105.414 1.06543V17.3654C105.42 17.4897 105.399 17.614 105.353 17.7303C105.306 17.8466 105.235 17.9527 105.144 18.0421C105.052 18.1314 104.943 18.2022 104.822 18.2501C104.701 18.2979 104.57 18.3219 104.439 18.3204H104.334C104.11 18.304 103.894 18.2398 103.7 18.1324C103.506 18.025 103.341 17.8773 103.216 17.7005L91.415 3.38545V17.3854C91.415 17.6506 91.3039 17.905 91.1062 18.0925C90.9085 18.28 90.6404 18.3854 90.3608 18.3854C90.0812 18.3854 89.8131 18.28 89.6154 18.0925C89.4177 17.905 89.3066 17.6506 89.3066 17.3854L89.3225 1.11543Z" fill="white"/>
<path d="M44.612 31.2695C44.284 31.2695 44.12 31.0975 44.12 30.7535V23.5775H41.42C41.116 23.5775 40.964 23.4335 40.964 23.1455C40.964 22.8655 41.116 22.7255 41.42 22.7255H47.816C48.12 22.7255 48.272 22.8655 48.272 23.1455C48.272 23.4335 48.12 23.5775 47.816 23.5775H45.116V30.7535C45.116 31.0975 44.948 31.2695 44.612 31.2695Z" fill="white"/>
<path d="M53.1147 31.2695C52.7867 31.2695 52.6227 31.0975 52.6227 30.7535V23.2295C52.6227 22.8935 52.7907 22.7255 53.1267 22.7255H55.9707C56.8827 22.7255 57.5787 22.9375 58.0587 23.3615C58.5467 23.7855 58.7907 24.3895 58.7907 25.1735C58.7907 25.7975 58.6187 26.3095 58.2747 26.7095C57.9387 27.1095 57.4587 27.3695 56.8347 27.4895C57.2027 27.6175 57.5187 27.9295 57.7827 28.4255L58.9347 30.5735C59.0227 30.7415 59.0387 30.9015 58.9827 31.0535C58.9267 31.1975 58.7987 31.2695 58.5987 31.2695C58.4627 31.2695 58.3507 31.2415 58.2627 31.1855C58.1747 31.1215 58.0987 31.0255 58.0347 30.8975L56.7267 28.4735C56.5427 28.1295 56.3307 27.9015 56.0907 27.7895C55.8507 27.6695 55.5347 27.6095 55.1427 27.6095H53.6067V30.7535C53.6067 31.0975 53.4427 31.2695 53.1147 31.2695ZM53.6067 26.8295H55.8267C57.1547 26.8295 57.8187 26.2775 57.8187 25.1735C57.8187 24.0855 57.1547 23.5415 55.8267 23.5415H53.6067V26.8295Z" fill="white"/>
<path d="M63.7012 31.2695C63.5092 31.2695 63.3772 31.2055 63.3052 31.0775C63.2332 30.9495 63.2412 30.7895 63.3292 30.5975L66.6292 23.0855C66.7572 22.7895 66.9532 22.6415 67.2172 22.6415C67.3372 22.6415 67.4452 22.6775 67.5412 22.7495C67.6452 22.8135 67.7292 22.9255 67.7932 23.0855L71.1052 30.5975C71.1932 30.7895 71.2052 30.9495 71.1412 31.0775C71.0772 31.2055 70.9492 31.2695 70.7572 31.2695C70.6132 31.2695 70.4972 31.2335 70.4092 31.1615C70.3212 31.0815 70.2492 30.9695 70.1932 30.8255L69.4132 29.0255H65.0092L64.2412 30.8255C64.1132 31.1215 63.9332 31.2695 63.7012 31.2695ZM67.2052 23.8775L65.3692 28.1975H69.0652L67.2292 23.8775H67.2052Z" fill="white"/>
<path d="M76.5234 31.1855C76.1634 31.1855 75.9834 31.0055 75.9834 30.6455V23.2655C75.9834 22.9055 76.1634 22.7255 76.5234 22.7255H78.8394C80.2074 22.7255 81.2634 23.0895 82.0074 23.8175C82.7514 24.5375 83.1234 25.5815 83.1234 26.9495C83.1234 28.3175 82.7514 29.3655 82.0074 30.0935C81.2634 30.8215 80.2074 31.1855 78.8394 31.1855H76.5234ZM76.9674 30.3455H78.7674C80.9754 30.3455 82.0794 29.2135 82.0794 26.9495C82.0794 24.6935 80.9754 23.5655 78.7674 23.5655H76.9674V30.3455Z" fill="white"/>
<path d="M88.7896 31.1855C88.4296 31.1855 88.2496 31.0055 88.2496 30.6455V23.2655C88.2496 22.9055 88.4296 22.7255 88.7896 22.7255H93.2536C93.5336 22.7255 93.6736 22.8615 93.6736 23.1335C93.6736 23.4135 93.5336 23.5535 93.2536 23.5535H89.2096V26.4815H93.0016C93.2816 26.4815 93.4216 26.6175 93.4216 26.8895C93.4216 27.1695 93.2816 27.3095 93.0016 27.3095H89.2096V30.3575H93.2536C93.5336 30.3575 93.6736 30.4935 93.6736 30.7655C93.6736 31.0455 93.5336 31.1855 93.2536 31.1855H88.7896Z" fill="white"/>
<path d="M99.0977 31.2695C98.7697 31.2695 98.6057 31.0975 98.6057 30.7535V23.2295C98.6057 22.8935 98.7737 22.7255 99.1097 22.7255H101.954C102.866 22.7255 103.562 22.9375 104.042 23.3615C104.53 23.7855 104.774 24.3895 104.774 25.1735C104.774 25.7975 104.602 26.3095 104.258 26.7095C103.922 27.1095 103.442 27.3695 102.818 27.4895C103.186 27.6175 103.502 27.9295 103.766 28.4255L104.918 30.5735C105.006 30.7415 105.022 30.9015 104.966 31.0535C104.91 31.1975 104.782 31.2695 104.582 31.2695C104.446 31.2695 104.334 31.2415 104.246 31.1855C104.158 31.1215 104.082 31.0255 104.018 30.8975L102.71 28.4735C102.526 28.1295 102.314 27.9015 102.074 27.7895C101.834 27.6695 101.518 27.6095 101.126 27.6095H99.5897V30.7535C99.5897 31.0975 99.4257 31.2695 99.0977 31.2695ZM99.5897 26.8295H101.81C103.138 26.8295 103.802 26.2775 103.802 25.1735C103.802 24.0855 103.138 23.5415 101.81 23.5415H99.5897V26.8295Z" fill="white"/>
<defs>
<linearGradient id="paint0_linear" x1="-11.0292" y1="10.9493" x2="52.3379" y2="27.3015" gradientUnits="userSpaceOnUse">
<stop stop-color="#00E5FF"/>
<stop offset="1" stop-color="#4676E0"/>
</linearGradient>
</defs>
</svg>
