<svg width="32" height="32" viewBox="0 0 32 32" fill="none" xmlns="http://www.w3.org/2000/svg">
<path d="M15.407 6.55969L15.4597 6.72469C15.6238 7.24914 15.5622 7.81386 15.2887 8.29542C15.0151 8.77699 14.5517 9.13625 13.9997 9.29469L13.8258 9.34469C13.3503 9.48061 12.8399 9.45587 12.3816 9.27468L4.17377 19.2047C4.28714 19.3682 4.37418 19.5468 4.43204 19.7347L4.48475 19.8997C4.65043 20.4235 4.59031 20.9882 4.31758 21.47C4.04485 21.9518 3.58179 22.3113 3.02999 22.4697L2.85605 22.5197C2.30248 22.6768 1.70582 22.6192 1.19695 22.3596C0.688072 22.0999 0.308526 21.6594 0.14156 21.1347L0.0888512 20.9697C-0.0737168 20.4452 -0.0115577 19.8811 0.261823 19.3999C0.535204 18.9187 0.99772 18.5593 1.54888 18.3997L1.72282 18.3497C2.14636 18.2221 2.60118 18.2221 3.02472 18.3497L11.2894 8.34969C11.2176 8.22218 11.1593 8.08818 11.1155 7.94969L11.0628 7.78469C10.8988 7.26023 10.9603 6.69551 11.2339 6.21395C11.5074 5.73238 11.9709 5.37312 12.5228 5.21469L12.6968 5.16469C13.2512 5.0092 13.848 5.06877 14.3561 5.33032C14.8643 5.59187 15.2422 6.03402 15.407 6.55969ZM14.5373 15.1447L14.3634 15.1947C13.8114 15.3531 13.348 15.7124 13.0744 16.1939C12.8009 16.6755 12.7394 17.2402 12.9034 17.7647L12.9561 17.9297C12.9999 18.0682 13.0581 18.2022 13.13 18.3297L5.54419 27.4997C5.12029 27.3743 4.6662 27.3743 4.24229 27.4997L4.06835 27.5497C3.52523 27.7123 3.07093 28.0704 2.80291 28.5471C2.53489 29.0238 2.47449 29.5812 2.63468 30.0997L2.68739 30.2647C2.85441 30.7883 3.23313 31.2279 3.74078 31.4874C4.24843 31.7469 4.84374 31.8053 5.39661 31.6497L5.57055 31.5997C6.12424 31.4351 6.58658 31.069 6.8563 30.5817C7.12601 30.0944 7.1811 29.5255 7.00949 28.9997L6.95679 28.8347C6.89437 28.6501 6.80759 28.4737 6.69851 28.3097L14.2306 19.2447C14.6889 19.4259 15.1994 19.4506 15.6748 19.3147L15.8487 19.2647C16.4007 19.1062 16.8641 18.747 17.1377 18.2654C17.4113 17.7839 17.4728 17.2191 17.3088 16.6947L17.2561 16.5297C17.0891 16.004 16.7089 15.5628 16.1991 15.3031C15.6892 15.0433 15.0915 14.9864 14.5373 15.1447ZM26.5865 0.0846866L26.4126 0.134687C25.861 0.295347 25.3985 0.655756 25.1252 1.13778C24.8519 1.6198 24.7898 2.18458 24.9526 2.70969L25.0053 2.87469C25.0505 3.01344 25.1106 3.14747 25.1845 3.27469L20.1561 9.34969C19.7325 9.22208 19.2777 9.22208 18.8542 9.34969L18.6802 9.39968C18.1284 9.55802 17.6654 9.91753 17.3927 10.3993C17.1199 10.8811 17.0598 11.4459 17.2255 11.9697L17.2729 12.1347C17.4444 12.6559 17.8255 13.092 18.3336 13.3484C18.8417 13.6049 19.4359 13.661 19.9874 13.5047L20.1613 13.4547C20.4352 13.3757 20.6899 13.2463 20.911 13.0738C21.132 12.9014 21.3151 12.6893 21.4496 12.4496C21.5841 12.21 21.6675 11.9475 21.695 11.6773C21.7225 11.407 21.6935 11.1343 21.6098 10.8747L21.5623 10.7097C21.5004 10.5224 21.4117 10.3441 21.2988 10.1797L26.264 4.17969C26.7254 4.35639 27.2365 4.3793 27.7134 4.24469L27.8874 4.19469C28.4392 4.03635 28.9022 3.67684 29.175 3.19504C29.4477 2.71324 29.5078 2.14849 29.3421 1.62469L29.2894 1.45969C29.1202 0.939294 28.7415 0.503143 28.2356 0.245763C27.7296 -0.0116172 27.1371 -0.0694904 26.5865 0.0846866ZM28.9426 9.08469C28.3662 9.24782 27.8812 9.62071 27.5936 10.1219C27.306 10.6231 27.2392 11.2119 27.4077 11.7597V11.8447C27.4503 11.9836 27.5086 12.1177 27.5817 12.2447L21.0142 20.3047C21.0038 20.3186 20.989 20.3291 20.9719 20.3345C20.9549 20.3399 20.9364 20.3399 20.9193 20.3347C20.5135 20.2196 20.0811 20.2196 19.6754 20.3347L19.591 20.3597C19.0155 20.5251 18.5324 20.8997 18.247 21.4018C17.9616 21.9039 17.8972 22.4927 18.0678 23.0397C18.2377 23.5893 18.6308 24.0524 19.1606 24.3271C19.6904 24.6019 20.3135 24.6657 20.8929 24.5047C21.4683 24.3394 21.9511 23.9645 22.2356 23.4622C22.5202 22.9599 22.5832 22.371 22.411 21.8247L22.3846 21.7447C22.3341 21.5467 22.2505 21.3576 22.1369 21.1847L28.6833 13.1847C28.6968 13.1718 28.7138 13.1627 28.7323 13.1583C28.7509 13.1539 28.7704 13.1544 28.7887 13.1597C29.2328 13.3199 29.7204 13.3357 30.1749 13.2047L30.2645 13.1797C30.8387 13.0143 31.3205 12.6403 31.605 12.1391C31.8894 11.6379 31.9532 11.0504 31.7825 10.5047C31.6039 9.96016 31.2055 9.50475 30.6743 9.23779C30.143 8.97083 29.5221 8.914 28.9468 9.07969L28.9426 9.08469Z" fill="url(#paint0_linear)"/>
<defs>
<linearGradient id="paint0_linear" x1="-11.0292" y1="8.94932" x2="52.3379" y2="25.3016" gradientUnits="userSpaceOnUse">
<stop stop-color="#00E5FF"/>
<stop offset="1" stop-color="#4676E0"/>
</linearGradient>
</defs>
</svg>
