<svg width="197" height="193" viewBox="0 0 197 193" fill="none" xmlns="http://www.w3.org/2000/svg">
<circle cx="83" cy="83" r="83" fill="#334B74"/>
<path fill-rule="evenodd" clip-rule="evenodd" d="M50.5408 111.624C68.5128 129.596 97.6512 129.596 115.623 111.624C133.595 93.6516 133.595 64.5132 115.623 46.5412C97.6512 28.5692 68.5128 28.5692 50.5408 46.5412C32.5688 64.5132 32.5688 93.6516 50.5408 111.624ZM57.0491 105.115C71.4267 119.493 94.7374 119.493 109.115 105.115C123.493 90.7375 123.493 67.4268 109.115 53.0492C94.7374 38.6716 71.4267 38.6716 57.0491 53.0492C42.6715 67.4268 42.6715 90.7375 57.0491 105.115Z" fill="#C4C4C4"/>
<rect x="127.827" y="114.176" width="57.5252" height="17.2576" rx="8.62879" transform="rotate(45 127.827 114.176)" fill="#C4C4C4"/>
<rect x="111.558" y="106.04" width="23.0101" height="5.75252" rx="2.87626" transform="rotate(45 111.558 106.04)" fill="#C4C4C4"/>
<path d="M85.4922 85.5234H79.8672L79.0703 61.875H86.2891L85.4922 85.5234ZM82.6797 89.2266C83.8203 89.2266 84.7344 89.5625 85.4219 90.2344C86.125 90.9062 86.4766 91.7656 86.4766 92.8125C86.4766 93.8438 86.125 94.6953 85.4219 95.3672C84.7344 96.0391 83.8203 96.375 82.6797 96.375C81.5547 96.375 80.6406 96.0391 79.9375 95.3672C79.25 94.6953 78.9062 93.8438 78.9062 92.8125C78.9062 91.7812 79.25 90.9297 79.9375 90.2578C80.6406 89.5703 81.5547 89.2266 82.6797 89.2266Z" fill="#CACACA"/>
</svg>
